<?xml version="1.0" standalone="no"?>
<!DOCTYPE svg PUBLIC "-//W3C//DTD SVG 20010904//EN"
 "http://www.w3.org/TR/2001/REC-SVG-20010904/DTD/svg10.dtd">
<svg version="1.0" xmlns="http://www.w3.org/2000/svg"
 width="400.000000pt" height="400.000000pt" viewBox="0 0 400.000000 400.000000"
 preserveAspectRatio="xMidYMid meet">
<metadata>
Created by potrace 1.14, written by Peter Selinger 2001-2017
</metadata>
<g transform="translate(0.000000,400.000000) scale(0.100000,-0.100000)"
fill="#000000" stroke="none">
<path d="M3890 3989 c0 -17 27 -28 38 -17 9 9 12 8 12 -4 0 -25 -19 -32 -38
-16 -35 30 -43 31 -36 4 6 -26 -11 -60 -25 -51 -15 9 -3 -86 13 -104 17 -19
12 -56 -7 -44 -6 4 -8 0 -4 -10 3 -9 2 -19 -4 -23 -6 -4 -6 -11 2 -20 10 -12
9 -13 -6 -8 -16 7 -16 5 -1 -25 9 -17 14 -31 10 -31 -3 0 1 -11 10 -25 9 -13
17 -36 18 -50 1 -14 6 -25 10 -25 12 0 4 -39 -10 -45 -7 -2 -11 -1 -8 4 3 5
-1 11 -9 15 -9 3 -15 0 -15 -8 0 -9 -8 -12 -22 -9 -19 4 -20 3 -8 -6 8 -6 10
-11 4 -11 -6 0 -14 3 -18 7 -4 4 -13 8 -19 9 -7 0 -20 2 -29 2 -10 1 -18 7
-18 12 0 6 8 10 18 11 10 0 12 3 5 6 -9 3 -10 10 -3 23 7 13 6 20 -6 24 -25 9
-27 8 -21 -20 3 -16 0 -28 -9 -31 -11 -4 -12 -9 -3 -19 16 -19 4 -18 -15 2
-15 14 -16 14 -16 -5 0 -12 6 -21 13 -21 8 0 7 -3 -3 -10 -11 -7 -17 -4 -22
11 -5 13 -14 19 -23 15 -8 -3 -17 -1 -20 4 -4 6 -11 10 -18 10 -6 0 -2 -7 9
-16 17 -14 17 -15 1 -10 -16 5 -16 3 3 -24 13 -19 17 -29 9 -28 -7 2 -13 -1
-14 -7 0 -5 -6 -20 -13 -32 -9 -17 -9 -23 1 -27 6 -3 1 -3 -12 0 -16 4 -21 3
-17 -5 4 -6 2 -11 -4 -11 -6 0 -8 -5 -5 -10 4 -7 -12 -10 -45 -9 -34 2 -55 -2
-60 -11 -4 -7 -15 -10 -25 -6 -11 4 -15 2 -13 -6 3 -7 10 -13 16 -13 6 0 17
-6 24 -14 11 -12 10 -13 -6 -7 -18 6 -19 6 -4 -11 13 -14 14 -20 4 -29 -10 -9
-19 -4 -40 22 -25 32 -24 46 2 24 7 -5 6 -3 -2 6 -15 17 -61 11 -50 -7 3 -5 9
-7 13 -4 5 2 16 -4 26 -15 18 -19 17 -20 -4 -20 -14 0 -20 4 -16 13 4 6 0 4
-8 -5 -14 -18 -37 -24 -37 -10 0 4 -10 13 -22 20 -13 7 -3 -6 22 -29 l45 -41
-44 27 c-24 15 -40 21 -36 14 6 -9 2 -11 -15 -6 l-22 6 20 -22 c12 -12 21 -24
21 -27 0 -3 3 -13 7 -24 13 -34 -17 -37 -53 -5 -40 34 -48 36 -33 9 6 -12 22
-25 36 -30 13 -5 24 -17 24 -26 0 -16 -2 -15 -20 1 -11 10 -20 13 -20 7 0 -6
12 -20 27 -31 14 -12 24 -24 21 -27 -7 -7 -58 43 -58 57 0 5 -8 9 -17 7 -10
-2 -17 2 -16 9 1 6 -4 17 -12 23 -16 13 -21 35 -6 26 5 -4 7 4 3 16 -4 16 -2
19 9 13 12 -8 12 -6 0 8 -8 10 -9 17 -3 17 6 0 14 -4 17 -10 3 -5 12 -10 18
-10 7 0 -1 9 -18 20 -16 11 -34 20 -40 20 -5 0 -3 -5 5 -10 10 -6 11 -10 3
-10 -7 0 -12 -4 -10 -9 1 -5 -2 -11 -8 -13 -5 -1 -11 7 -13 20 -2 12 -7 22
-12 22 -5 0 -7 -7 -4 -15 4 -8 1 -15 -6 -15 -7 0 -10 11 -8 28 3 26 1 27 -45
27 -45 1 -48 -1 -42 -22 3 -13 1 -23 -5 -23 -5 0 -10 5 -10 11 0 5 -4 8 -8 5
-5 -3 -7 9 -6 27 2 18 1 24 -2 14 -3 -9 -10 -15 -15 -12 -5 4 -9 -5 -9 -19 0
-14 5 -26 10 -26 6 0 10 -7 10 -16 0 -10 -6 -14 -15 -10 -11 4 -15 -1 -15 -19
0 -28 0 -28 -34 -15 -19 7 -26 6 -26 -3 0 -6 -6 -3 -12 7 -8 15 -8 21 0 24 7
2 9 9 6 15 -3 7 3 1 15 -13 l20 -25 -1 30 c-1 17 1 42 5 57 6 24 3 28 -38 44
-25 9 -45 22 -45 28 -1 13 -25 -18 -46 -56 -13 -25 -13 -29 6 -45 11 -10 20
-22 20 -27 0 -6 -5 -5 -12 2 -22 22 -38 13 -60 -33 -12 -25 -26 -45 -31 -45
-4 0 -5 -4 -2 -10 16 -26 -35 -6 -65 25 -37 38 -34 44 8 18 24 -15 24 -13 -7
20 -38 41 -43 44 -35 23 4 -11 -3 -14 -28 -13 -31 2 -48 12 -48 30 0 5 5 5 10
2 6 -3 10 -2 10 4 0 5 -9 9 -19 8 -18 -1 -18 -3 -5 -28 10 -21 20 -27 36 -24
16 3 34 -6 60 -32 40 -39 54 -71 16 -36 -13 11 -39 28 -58 38 l-35 17 30 -26
c17 -14 24 -25 16 -26 -10 0 -9 -6 5 -27 10 -16 24 -40 32 -55 7 -15 18 -30
24 -34 7 -4 7 0 0 13 -8 15 -7 19 8 19 18 0 19 -7 5 -38 -10 -24 -19 -17 -55
47 -18 32 -36 52 -42 49 -6 -4 -8 -3 -5 3 3 5 -3 24 -14 42 -15 25 -23 30 -33
22 -9 -7 -16 -7 -23 0 -8 8 -12 -12 -15 -75 -3 -87 -3 -87 26 -106 28 -17 28
-18 7 -25 -11 -3 -25 -3 -31 0 -6 4 -10 3 -9 -2 4 -20 -2 -33 -15 -33 -20 0
-22 13 -20 137 1 66 -2 110 -7 107 -15 -9 -39 -74 -39 -104 0 -15 -6 -30 -14
-33 -15 -6 -28 -57 -15 -57 5 0 9 -7 9 -16 0 -13 -3 -14 -15 -4 -12 10 -17 5
-30 -25 -8 -21 -15 -41 -15 -46 0 -5 -13 -17 -30 -27 -37 -23 -85 -18 -87 9
-2 23 5 24 26 5 20 -18 75 -10 67 10 -3 7 -1 16 5 20 6 4 6 11 -2 21 -11 12
-10 14 7 11 14 -2 20 4 22 21 2 14 0 21 -6 17 -6 -4 -13 -2 -17 4 -10 16 -35
12 -35 -6 0 -14 -2 -14 -15 -1 -8 9 -24 13 -35 10 -20 -5 -20 -6 -3 -26 18
-20 18 -20 -7 -7 -13 7 -38 15 -55 16 l-30 4 37 -35 c20 -19 33 -37 28 -40 -6
-4 -10 -16 -10 -28 -1 -20 -2 -21 -14 -5 -7 10 -17 14 -21 10 -5 -4 -5 1 -2
10 3 9 -1 22 -9 28 -11 10 -14 9 -14 -8 0 -30 20 -71 37 -74 12 -2 11 -7 -5
-25 -10 -13 -23 -19 -27 -15 -5 4 -5 -1 -2 -11 5 -12 0 -20 -16 -26 -12 -5
-35 -23 -51 -39 -17 -19 -35 -28 -45 -25 -14 4 -14 3 -1 -7 11 -9 12 -13 3
-17 -7 -2 -13 -9 -13 -15 0 -5 -23 -43 -52 -85 -28 -41 -52 -82 -53 -91 -3
-35 -30 -92 -43 -92 -7 0 -10 -4 -7 -10 3 -6 1 -10 -4 -10 -6 0 -11 -9 -11
-20 0 -14 -5 -18 -17 -13 -11 4 -14 3 -9 -5 4 -7 17 -12 29 -12 l22 -1 -23
-19 c-21 -17 -26 -18 -39 -5 -19 20 -29 19 -13 0 9 -11 10 -19 3 -26 -7 -7
-14 -5 -22 5 -13 16 -45 10 -35 -6 4 -6 -3 -5 -15 2 -18 9 -20 14 -11 26 7 7
16 11 21 8 5 -3 9 2 9 11 0 9 4 13 10 10 5 -3 19 -1 30 5 25 13 27 50 3 49
-11 0 -13 -3 -5 -6 6 -2 12 -12 12 -20 0 -12 -3 -13 -14 -4 -11 9 -15 9 -18 0
-3 -9 -9 -8 -25 2 -17 10 -19 16 -11 26 8 11 7 12 -8 6 -16 -6 -17 -4 -7 8 10
12 10 18 0 28 -10 11 -8 12 11 6 13 -4 22 -2 22 4 0 6 -7 11 -15 11 -23 0 -18
18 7 23 20 4 19 4 -4 6 -32 1 -37 17 -8 26 23 7 40 -1 40 -19 0 -14 69 -50 78
-41 4 3 -4 8 -16 12 -12 3 -22 9 -22 14 0 5 -7 9 -16 9 -8 0 -12 5 -8 11 4 8
9 8 17 0 15 -15 30 -14 21 2 -6 8 -3 8 9 -2 19 -15 72 -7 61 10 -4 8 -9 8 -14
-1 -5 -8 -9 -8 -13 4 -3 8 -1 16 5 18 7 3 5 10 -5 20 -10 9 -14 24 -10 37 4
16 -2 31 -22 51 -15 15 -27 31 -26 34 4 24 -1 46 -10 46 -5 0 -7 -5 -4 -11 4
-6 -2 -13 -14 -16 -29 -7 -26 -21 3 -18 17 2 23 -1 20 -10 -6 -14 -37 -9 -70
12 -12 7 -29 11 -38 7 -15 -6 -15 -9 4 -29 24 -26 19 -33 -24 -33 -28 0 -29 1
-7 12 26 14 18 26 -18 26 -25 1 -25 1 -7 15 16 12 16 15 4 15 -8 0 -23 -9 -33
-20 -10 -11 -28 -20 -39 -21 -15 0 -17 -2 -6 -6 8 -4 21 -13 29 -21 13 -13 12
-14 -9 -8 -56 16 -93 46 -57 46 7 0 30 20 50 45 21 25 44 45 52 45 7 0 16 5
18 10 3 6 4 5 3 -2 -1 -7 -15 -19 -31 -28 -16 -9 -30 -21 -31 -28 -1 -7 0 -8
3 -2 2 5 18 10 34 10 20 0 27 4 23 14 -7 18 40 54 83 62 22 4 31 10 25 16 -6
6 -17 6 -30 -1 -31 -17 -47 -14 -32 4 7 9 10 18 6 22 -3 3 -6 1 -6 -6 0 -7 -5
-9 -11 -5 -8 5 -6 10 5 16 9 5 21 6 28 2 8 -5 9 -2 5 10 -4 10 -7 20 -7 22 0
3 -11 9 -25 14 -28 11 -35 33 -7 23 9 -3 14 -3 10 2 -10 11 20 37 34 30 7 -4
5 0 -4 8 -10 8 -18 20 -18 26 0 7 -5 9 -10 6 -6 -4 -7 -12 -3 -18 7 -12 -16 3
-53 36 -17 15 -23 16 -30 5 -4 -7 -4 -10 1 -6 8 7 52 -42 48 -52 -7 -13 -28
-3 -28 13 0 10 -11 23 -24 30 -14 7 -26 18 -29 26 -3 8 0 11 7 7 7 -4 9 -1 5
8 -5 12 -9 13 -25 3 -19 -12 -19 -12 2 -29 11 -10 18 -23 16 -30 -4 -10 -6
-10 -6 0 -1 6 -6 12 -12 12 -5 0 -7 -5 -3 -11 3 -6 -4 -5 -17 2 -28 16 -84 20
-69 5 15 -15 12 -30 -3 -17 -8 6 -16 9 -19 6 -3 -3 -11 1 -18 10 -7 9 -8 15
-2 15 6 0 13 -6 15 -12 3 -7 6 1 6 17 1 38 -8 51 -38 52 -13 1 -32 11 -43 22
-10 12 -24 21 -31 21 -6 0 -1 -7 11 -16 28 -20 28 -32 0 -27 -13 2 -33 19 -45
36 -13 17 -23 26 -23 19 0 -10 -5 -10 -21 -2 -11 7 -23 9 -26 7 -2 -3 11 -13
31 -22 25 -12 36 -24 36 -39 0 -13 -3 -17 -8 -9 -4 6 -24 23 -44 36 l-36 25
-11 -24 c-9 -21 -7 -26 17 -41 15 -10 33 -26 40 -35 14 -20 38 -25 26 -6 -5 7
-3 8 5 4 7 -5 10 -11 7 -14 -3 -3 2 -15 11 -26 10 -12 11 -15 3 -8 -8 6 -18
12 -23 12 -4 0 -5 -6 -1 -12 4 -7 -2 -5 -14 6 -12 10 -19 23 -16 27 9 15 -11
10 -32 -7 -10 -8 -14 -13 -8 -10 7 3 18 -2 25 -12 13 -16 13 -16 -5 -2 -18 14
-19 13 -13 -4 6 -16 5 -17 -8 -6 -8 7 -13 23 -11 35 5 29 -3 38 -21 24 -10 -9
-13 -8 -13 3 0 11 -7 14 -27 10 -27 -5 -27 -5 -5 -15 13 -6 21 -16 18 -24 -3
-7 1 -13 9 -13 8 0 15 -7 15 -16 0 -8 4 -13 9 -10 5 3 31 -6 57 -20 47 -25 48
-25 29 -4 l-20 23 22 -12 c13 -6 28 -21 34 -32 9 -17 8 -20 -3 -13 -7 5 -22 9
-33 9 -11 1 -29 5 -40 9 -114 44 -145 48 -70 10 28 -14 71 -30 97 -35 51 -11
67 -24 50 -41 -7 -7 -18 -5 -33 6 -13 9 -31 16 -40 16 -9 0 -28 9 -42 20 -34
27 -39 25 -21 -7 7 -16 14 -35 14 -43 0 -13 1 -13 10 0 7 11 12 12 17 4 5 -6
21 -10 37 -8 34 3 69 -12 60 -27 -4 -6 -11 -6 -20 2 -12 10 -17 9 -27 -1 -9
-10 -9 -11 0 -6 7 4 18 -2 25 -13 9 -15 16 -17 25 -9 10 8 15 3 23 -17 13 -35
7 -41 -26 -26 -23 10 -26 10 -20 -4 3 -9 6 -25 6 -36 0 -11 7 -19 16 -19 13 0
14 -3 4 -15 -6 -8 -8 -20 -4 -27 6 -9 3 -9 -10 1 -10 9 -13 17 -7 20 6 4 2 12
-9 19 -17 10 -20 10 -20 -3 0 -9 -6 -12 -15 -9 -13 5 -13 8 0 21 28 27 18 36
-82 73 -18 7 -33 16 -33 21 0 5 -7 9 -15 9 -8 0 -15 -7 -15 -15 0 -12 -4 -13
-19 -6 -10 6 -21 8 -25 6 -3 -3 -4 -2 -1 2 7 9 -15 33 -29 33 -26 0 -4 -59 32
-87 57 -45 72 -62 66 -76 -3 -8 2 -20 10 -27 19 -15 12 -28 -20 -41 -22 -8
-24 -13 -18 -44 6 -35 1 -40 -32 -36 -16 2 -26 -29 -15 -43 6 -7 4 -20 -4 -36
-13 -23 -14 -23 -16 -5 -1 14 -3 11 -8 -8 l-6 -29 -24 21 c-13 12 -36 21 -50
21 -16 0 -31 8 -40 22 -12 19 -15 20 -25 6 -11 -15 -49 -18 -63 -4 -4 4 -2 11
6 15 10 7 9 10 -3 14 -10 4 -16 1 -16 -8 0 -8 -3 -15 -7 -15 -5 0 -13 -12 -20
-26 -9 -20 -9 -30 0 -45 13 -21 27 -25 27 -7 0 9 3 9 11 1 6 -6 17 -10 23 -9
6 2 8 1 4 -1 -5 -3 -3 -13 2 -23 7 -13 7 -21 -2 -26 -6 -4 -8 -3 -5 3 4 6 0
16 -8 23 -12 10 -16 9 -22 -5 -7 -21 21 -47 43 -38 18 7 134 -17 134 -27 0
-13 -38 -18 -49 -7 -8 8 -11 7 -11 -2 0 -7 -5 -9 -10 -6 -6 4 -7 12 -4 18 4 7
4 9 -1 5 -4 -4 -14 -3 -21 3 -19 16 -11 -37 10 -60 22 -25 21 -27 -20 -27 -19
0 -39 -6 -43 -12 -6 -10 -11 -9 -21 3 -14 16 -35 21 -25 5 3 -5 1 -18 -4 -28
-7 -13 -6 -23 2 -31 9 -9 9 -14 -3 -21 -11 -7 -8 -11 15 -20 67 -24 85 -33 96
-46 10 -12 8 -13 -6 -7 -15 5 -17 3 -11 -13 6 -15 5 -17 -5 -6 -7 6 -17 12
-23 12 -5 0 -6 -3 -3 -7 4 -3 2 -12 -4 -19 -7 -8 -7 -14 1 -19 7 -4 5 -11 -5
-21 -8 -9 -12 -21 -8 -27 4 -6 0 -8 -10 -4 -32 12 -17 -13 18 -30 19 -9 35
-20 35 -25 0 -11 -7 -10 -33 4 -20 10 -21 10 -8 -5 15 -19 2 -24 -16 -6 -22
22 -25 -13 -4 -42 24 -33 18 -38 -13 -12 -20 17 -20 17 -6 -1 8 -10 23 -22 35
-26 19 -7 19 -8 -7 -20 -24 -12 -30 -9 -75 26 -41 32 -39 29 15 -22 34 -33 62
-63 62 -66 0 -3 -12 -3 -27 1 -16 5 -27 14 -25 20 1 7 -2 9 -9 5 -6 -3 -15 0
-20 7 -6 9 -9 10 -9 2 0 -6 5 -15 11 -19 8 -4 7 -9 -2 -16 -11 -7 -11 -8 1 -7
27 4 66 -12 78 -31 10 -17 10 -18 -16 -4 -30 15 -58 18 -65 7 -2 -5 -2 -3 -1
4 2 7 -1 15 -6 18 -6 4 -10 1 -10 -5 0 -6 -4 -8 -10 -5 -20 13 -9 -14 12 -29
12 -9 17 -16 11 -16 -6 0 -16 7 -23 15 -7 8 -20 15 -29 15 -10 -1 0 -15 29
-42 25 -23 36 -37 25 -34 -14 5 -17 4 -9 -4 20 -20 53 -20 67 1 8 10 17 16 20
12 4 -3 -1 -12 -11 -20 -16 -14 -16 -14 1 -9 10 3 28 6 39 6 11 0 33 14 49 31
25 27 30 29 36 14 3 -10 1 -26 -6 -36 -9 -15 -8 -19 2 -19 10 0 13 -15 11 -55
-1 -30 -5 -59 -9 -65 -4 -6 -1 -18 7 -27 11 -14 11 -16 -2 -9 -8 4 -7 1 3 -7
16 -14 16 -15 -8 -19 -25 -5 -51 13 -38 25 3 4 1 7 -5 7 -7 0 -12 -4 -12 -8 0
-10 40 -48 46 -44 2 1 13 2 25 2 14 0 19 -5 16 -14 -3 -8 0 -20 8 -26 14 -11
9 -46 -8 -57 -5 -3 -8 -2 -4 3 3 5 -7 9 -22 9 -23 1 -27 -3 -23 -19 3 -13 1
-17 -6 -12 -7 4 -12 2 -12 -5 0 -7 -8 -9 -21 -6 -18 5 -18 3 -7 -11 7 -9 -2
-4 -21 11 -18 15 -36 25 -39 22 -3 -3 3 -11 13 -18 17 -13 17 -14 -1 -21 -11
-4 -28 1 -46 14 -30 22 -38 24 -38 11 0 -5 9 -11 20 -14 14 -4 18 -10 14 -22
-5 -12 -10 -13 -17 -6 -17 17 -50 14 -43 -5 3 -8 2 -13 -3 -9 -5 3 -11 0 -13
-7 -3 -7 -12 -9 -22 -5 -11 4 -14 12 -9 19 14 24 11 38 -10 53 -19 13 -20 15
-3 15 14 0 17 5 12 25 -6 23 -5 24 26 13 18 -6 40 -16 48 -23 8 -7 26 -18 40
-25 47 -24 -1 16 -53 44 -26 13 -43 27 -37 31 16 10 12 20 -21 44 -31 23 -65
34 -122 40 -5 1 -5 6 -1 13 5 7 3 8 -5 3 -9 -5 -5 -16 16 -38 l28 -31 -40 32
c-59 48 -66 39 -10 -13 49 -44 53 -56 13 -34 -21 11 -49 -3 -35 -18 10 -10 97
-12 103 -2 7 12 24 11 24 -1 0 -5 -3 -9 -7 -9 -22 4 -24 -3 -8 -21 17 -19 16
-19 -21 -14 -22 3 -55 10 -74 14 l-35 9 35 -29 c19 -17 28 -30 21 -30 -11 0
-11 -3 0 -17 24 -28 -49 18 -75 48 -12 14 -27 24 -33 22 -6 -2 -14 0 -17 5 -3
5 9 8 26 7 29 -2 30 -1 12 13 -18 14 -18 14 5 9 23 -6 23 -5 5 12 -11 9 -28
23 -39 29 -17 10 -17 11 -3 12 9 0 20 -4 23 -10 10 -17 33 -11 31 8 -2 13 -11
16 -37 14 -71 -5 -123 0 -150 14 -16 8 -29 11 -29 6 0 -9 59 -32 84 -32 9 0
14 -4 11 -10 -4 -6 10 -10 34 -10 22 0 43 -4 46 -10 3 -5 -1 -10 -9 -10 -9 0
-16 -7 -16 -16 0 -9 -5 -13 -12 -9 -7 4 10 -15 37 -40 28 -26 45 -44 38 -41
-17 9 -44 -4 -36 -18 4 -6 -1 -5 -10 3 -18 15 -23 26 -7 16 21 -13 9 12 -18
38 -28 27 -52 35 -52 17 0 -6 -10 -5 -25 2 -14 6 -25 14 -25 18 0 4 -8 10 -17
13 -10 2 -27 8 -38 12 -16 6 -15 3 5 -14 14 -11 20 -21 13 -21 -27 0 -70 24
-119 66 -29 24 -55 40 -58 35 -3 -4 19 -25 49 -45 60 -40 71 -59 27 -47 -31 9
-69 -10 -57 -28 4 -7 -4 -11 -19 -11 -35 0 -57 10 -50 24 4 6 -1 4 -11 -6 -19
-18 -14 -32 18 -49 22 -12 22 -12 3 10 -11 11 -15 21 -10 21 20 0 32 -17 31
-42 l-2 -27 -30 27 c-16 15 -35 34 -42 42 -10 12 -12 -24 -13 -186 0 -224 4
-241 54 -209 14 10 33 14 42 11 10 -4 22 1 29 11 13 18 20 20 75 28 27 4 30 3
14 -4 -14 -6 -21 -19 -22 -39 -1 -27 1 -29 36 -26 20 1 46 -4 58 -11 28 -18
85 -75 74 -75 -4 0 -13 7 -20 15 -7 8 -17 15 -23 15 -5 0 -2 -10 9 -22 l19
-23 -22 18 c-12 11 -19 25 -16 33 3 8 0 14 -7 14 -6 0 -9 -4 -5 -9 3 -5 0 -13
-6 -17 -9 -5 -3 -15 17 -31 16 -12 23 -23 16 -23 -7 0 -10 -5 -7 -10 4 -6 2
-17 -5 -24 -6 -8 -8 -25 -5 -38 4 -16 0 -32 -13 -48 -20 -26 -52 -84 -52 -95
0 -3 6 -3 13 1 6 4 9 3 4 -1 -4 -5 -16 -9 -27 -10 -18 -1 -18 1 -4 33 7 19 11
38 8 44 -3 5 3 18 15 29 21 20 30 45 11 34 -6 -3 -10 1 -10 10 0 12 -8 14 -37
10 -21 -3 -48 -7 -61 -8 -37 -5 -51 -33 -37 -76 15 -48 13 -107 -4 -103 -22 5
-51 -29 -45 -52 3 -15 -3 -29 -20 -46 -15 -13 -26 -18 -26 -12 0 6 10 18 23
27 19 13 20 17 7 25 -8 5 -21 7 -29 5 -11 -5 -12 -3 -1 10 7 8 18 15 24 15 7
0 23 11 36 25 l23 25 -31 6 c-17 4 -37 13 -43 20 -23 28 -28 12 -28 -86 0 -55
3 -100 8 -100 21 0 29 -47 14 -86 -8 -21 -17 -48 -19 -59 l-5 -20 12 20 c7 11
24 31 38 44 14 13 36 32 48 43 l22 20 -21 -42 c-12 -23 -34 -51 -49 -63 -16
-11 -29 -25 -29 -29 0 -5 10 0 22 12 12 11 27 20 32 20 6 -1 0 -10 -13 -21
-13 -11 -21 -22 -18 -26 4 -3 1 -13 -5 -22 -10 -13 -10 -14 2 -4 15 14 34 18
26 5 -2 -4 4 -8 14 -8 10 0 16 6 13 13 -3 7 -9 11 -13 8 -4 -3 -10 2 -14 10
-9 26 15 28 47 4 18 -12 26 -16 20 -7 -7 8 -10 18 -6 21 6 6 -11 11 -29 8 -4
0 0 12 8 27 7 15 14 32 14 39 0 6 9 9 20 6 21 -6 27 -19 11 -25 -11 -4 -22
-64 -13 -73 7 -6 8 -11 11 -37 1 -12 51 -42 51 -31 0 3 -10 14 -22 24 -14 12
-4 8 24 -8 31 -18 44 -31 38 -37 -6 -6 -10 -14 -10 -18 0 -4 9 1 20 12 21 21
65 26 90 10 13 -8 12 -10 -2 -10 -10 0 -18 -4 -18 -10 0 -15 157 -13 163 3 4
9 6 9 6 0 1 -10 31 -13 117 -13 103 0 115 2 104 15 -11 13 -10 14 4 9 9 -3 16
-10 16 -15 0 -5 21 -9 48 -9 41 0 50 4 72 33 39 50 111 126 119 125 8 -3 120
62 127 73 3 5 15 9 27 9 21 -1 21 -1 -3 -15 l-25 -14 35 -1 c147 -4 184 -10
249 -40 103 -48 248 -146 236 -158 -3 -3 -18 6 -33 21 -15 15 -62 44 -104 66
-43 21 -75 41 -72 44 7 7 -115 47 -140 46 -12 0 4 -7 34 -16 51 -13 240 -127
240 -144 0 -4 -30 13 -67 37 -64 42 -160 85 -186 83 -7 0 8 -9 33 -20 51 -23
146 -84 156 -101 4 -7 -7 -2 -24 11 -35 25 -164 85 -201 94 -37 9 -11 -9 34
-23 50 -16 112 -46 120 -59 3 -6 -18 0 -47 14 -29 13 -73 26 -98 29 l-45 7 50
-19 c85 -32 148 -62 142 -68 -3 -3 -18 1 -34 9 -29 15 -122 37 -151 36 -9 0 3
-7 27 -14 24 -8 49 -13 54 -12 5 1 12 -4 15 -12 5 -14 1 -14 -68 4 -16 4 -13
1 9 -9 37 -18 96 -22 86 -6 -3 6 -2 10 4 10 5 0 13 -5 16 -10 9 -14 642 -14
650 1 4 6 5 12 3 15 -8 7 -52 7 -73 0 -20 -7 -20 -7 -1 8 14 11 31 14 60 9 45
-6 58 -13 38 -20 -6 -3 -10 -9 -6 -14 7 -11 284 -12 284 -1 0 10 44 32 63 32
7 0 -1 -9 -18 -20 -23 -15 -26 -20 -12 -20 11 0 30 9 44 20 14 11 37 20 52 20
58 0 101 13 101 29 0 9 -11 52 -25 96 -14 44 -35 109 -46 145 -11 36 -32 82
-45 102 l-24 37 63 -44 c76 -53 101 -80 91 -96 -4 -8 -3 -10 5 -5 6 4 14 1 17
-7 3 -8 22 -18 42 -22 55 -10 226 -118 283 -178 24 -25 56 -82 41 -73 -6 3
-12 -1 -16 -9 -5 -13 44 -15 399 -15 223 0 405 3 405 8 1 19 190 198 190 179
0 -2 -39 -44 -87 -92 -58 -58 -83 -90 -74 -93 8 -2 18 2 22 11 9 16 121 107
149 121 8 4 -19 -24 -60 -63 -67 -63 -72 -70 -50 -71 18 0 40 14 70 45 24 25
49 45 54 45 6 0 -10 -20 -34 -45 l-44 -45 29 0 c19 0 42 12 63 30 l32 30 0
162 c0 126 -3 159 -12 150 -7 -7 -17 -12 -22 -12 -6 0 0 7 12 16 12 8 22 26
22 40 0 24 -8 30 -26 16 -5 -4 -1 0 8 10 21 19 24 54 6 61 -10 4 -10 6 0 6 9
1 12 30 12 113 0 87 -3 109 -12 100 -14 -14 -42 -16 -33 -2 4 6 -5 8 -22 6
-15 -2 -22 -1 -14 1 12 4 12 6 0 14 -11 7 -9 9 6 9 17 0 17 2 5 10 -9 6 -11
10 -3 10 7 0 10 7 7 15 -7 18 0 19 29 4 21 -10 20 -9 -1 9 l-24 18 31 25 31
24 0 523 c0 377 -3 522 -11 522 -8 0 -8 4 0 13 8 10 11 286 11 976 l0 962 -23
-6 c-12 -4 -27 -13 -33 -21 -14 -18 -20 -18 -27 0 -4 10 -1 13 9 9 23 -9 16 7
-8 17 -18 8 -14 9 20 6 31 -3 42 -1 42 10 0 8 5 14 10 14 6 0 10 25 10 55 l0
55 -55 -2 c-30 -1 -55 -5 -55 -9z m48 -282 c9 -7 9 -13 1 -23 -16 -19 -39 -6
-39 23 0 24 7 24 38 0z m32 -163 c0 -2 -7 -4 -15 -4 -8 0 -15 4 -15 10 0 5 7
7 15 4 8 -4 15 -8 15 -10z m-310 -64 c0 -5 -2 -10 -4 -10 -3 0 -8 5 -11 10 -3
6 -1 10 4 10 6 0 11 -4 11 -10z m238 -105 c-3 -3 -9 2 -12 12 -6 14 -5 15 5 6
7 -7 10 -15 7 -18z m-985 -101 c-3 -8 -9 -12 -13 -9 -5 3 -14 -3 -20 -12 -10
-16 -11 -16 -5 2 4 11 8 25 8 31 0 6 8 9 18 7 10 -3 15 -11 12 -19z m718 -7
c-10 -9 -11 -8 -5 6 3 10 9 15 12 12 3 -3 0 -11 -7 -18z m-551 -23 c0 -2 -7
-4 -15 -4 -8 0 -15 4 -15 10 0 5 7 7 15 4 8 -4 15 -8 15 -10z m-215 -14 c3 -6
-1 -7 -9 -4 -18 7 -21 14 -7 14 6 0 13 -4 16 -10z m-35 -35 c6 -7 13 -20 14
-27 1 -7 8 -22 15 -33 10 -16 11 -17 7 -2 -3 10 -2 16 3 13 5 -3 11 -19 13
-36 l5 -31 -34 33 c-20 19 -31 26 -28 16 8 -21 4 -22 -30 -6 -30 13 -34 33 -5
25 20 -5 28 7 11 17 -10 7 -3 46 9 46 4 0 13 -7 20 -15z m322 -20 c3 -14 1
-28 -3 -31 -5 -3 -9 1 -10 8 0 7 -2 21 -4 31 -2 9 0 17 5 17 4 0 10 -11 12
-25z m-262 -11 c0 -8 -4 -12 -10 -9 -5 3 -10 10 -10 16 0 5 5 9 10 9 6 0 10
-7 10 -16z m-434 -71 c-10 -10 -19 5 -10 18 6 11 8 11 12 0 2 -7 1 -15 -2 -18z
m904 -8 c0 -8 -7 -15 -15 -15 -8 0 -15 4 -15 9 0 5 -3 17 -7 26 -5 15 -3 16
15 6 12 -7 22 -18 22 -26z m-815 -5 c10 -11 16 -20 13 -20 -3 0 -13 9 -23 20
-10 11 -16 20 -13 20 3 0 13 -9 23 -20z m640 10 c3 -5 1 -10 -4 -10 -6 0 -11
5 -11 10 0 6 2 10 4 10 3 0 8 -4 11 -10z m-388 -25 c29 -14 49 -42 39 -52 -2
-3 -7 5 -11 17 -4 12 -12 19 -20 16 -7 -2 -21 4 -31 15 -21 23 -17 24 23 4z
m1073 -5 c0 -5 -2 -10 -4 -10 -3 0 -8 5 -11 10 -3 6 -1 10 4 10 6 0 11 -4 11
-10z m-1410 -16 c0 -8 -5 -12 -10 -9 -6 4 -8 11 -5 16 9 14 15 11 15 -7z m920
-4 c0 -5 -2 -10 -4 -10 -3 0 -8 5 -11 10 -3 6 -1 10 4 10 6 0 11 -4 11 -10z
m-66 -39 c-2 -3 -12 3 -22 13 -16 17 -16 18 5 5 12 -7 20 -15 17 -18z m-384
-1 c0 -5 7 -10 15 -10 16 0 18 -14 6 -44 -7 -18 -8 -18 -14 -3 -3 9 -14 17
-24 17 -14 0 -15 2 -4 9 8 5 11 16 8 25 -4 9 -2 16 3 16 6 0 10 -4 10 -10z
m312 -10 c7 -11 18 -20 24 -20 13 0 26 -25 17 -33 -8 -9 -33 4 -27 14 3 5 0 9
-5 9 -6 0 -11 -10 -11 -21 0 -19 -2 -20 -16 -8 -11 9 -12 15 -5 17 9 3 9 8 0
19 -7 8 -8 13 -3 12 23 -4 26 2 8 16 -10 8 -13 15 -7 15 7 0 18 -9 25 -20z
m-1902 -10 c0 -19 -11 -26 -23 -14 -8 8 3 34 14 34 5 0 9 -9 9 -20z m1110 -10
c0 -11 -5 -20 -11 -20 -8 0 -7 -6 2 -17 13 -15 12 -15 -8 -3 -32 20 -36 55 -6
58 17 1 23 -3 23 -18z m173 -7 c6 -32 5 -34 -9 -25 -19 12 -27 52 -11 52 8 0
17 -12 20 -27z m-1256 -17 c-3 -8 -1 -17 6 -20 7 -2 5 -5 -5 -5 -9 -1 -20 4
-23 9 -3 6 -1 10 5 10 6 0 8 5 5 10 -3 6 -1 10 5 10 7 0 10 -6 7 -14z m873
-39 c0 -11 -34 8 -50 28 -11 13 -8 13 18 -2 18 -10 32 -22 32 -26z m475 33
c-11 -5 -27 -9 -35 -9 -13 -1 -13 0 0 9 8 5 24 9 35 9 l20 0 -20 -9z m-1275
-32 c0 -6 -7 -5 -15 2 -8 7 -15 17 -15 22 0 6 7 5 15 -2 8 -7 15 -17 15 -22z
m107 5 c-8 -7 -37 9 -31 19 3 5 12 4 20 -3 8 -6 13 -14 11 -16z m1763 -23 c0
-5 -1 -12 -2 -14 -2 -2 6 -13 16 -25 27 -29 5 -26 -23 3 -13 14 -20 29 -16 35
8 14 25 14 25 1z m-73 -40 l-15 -22 -7 22 c-5 15 -2 25 6 31 22 13 33 -7 16
-31z m-1720 -7 c-16 -16 -17 -16 -17 0 0 11 4 15 12 11 8 -5 9 -1 4 12 -6 15
-5 17 5 6 11 -10 10 -15 -4 -29z m50 31 c-3 -3 -12 -4 -19 -1 -8 3 -5 6 6 6
11 1 17 -2 13 -5z m1563 -15 c0 -6 -4 -7 -10 -4 -5 3 -10 11 -10 16 0 6 5 7
10 4 6 -3 10 -11 10 -16z m-1473 -16 c3 -7 -4 -9 -16 -6 -12 3 -27 0 -34 -6
-10 -8 -19 -7 -33 5 -16 14 -17 15 -2 10 10 -3 28 -1 40 4 27 10 40 8 45 -7z
m1829 -3 c14 0 23 -4 20 -8 -7 -11 -64 -3 -73 11 -4 7 0 8 11 4 10 -4 29 -7
42 -7z m-2130 -19 c0 -11 -4 -17 -8 -15 -4 3 -8 12 -8 20 0 8 4 14 8 14 4 0 8
-9 8 -19z m904 2 c0 -5 -11 -16 -24 -25 -22 -16 -24 -16 -22 0 0 9 10 20 21
24 11 3 21 6 23 7 1 1 2 -2 2 -6z m-711 -52 c26 -20 23 -36 -9 -44 -13 -3 -20
0 -20 9 0 8 -7 14 -15 14 -8 0 -15 -7 -15 -16 0 -13 -3 -14 -14 -4 -17 14 -10
40 11 40 8 0 11 5 8 10 -11 17 29 11 54 -9z m91 9 c0 -5 -2 -10 -4 -10 -3 0
-8 5 -11 10 -3 6 -1 10 4 10 6 0 11 -4 11 -10z m740 -45 c0 -8 -4 -15 -10 -15
-5 0 -7 7 -4 15 4 8 8 15 10 15 2 0 4 -7 4 -15z m-927 -14 c-2 -6 2 -11 9 -11
9 0 9 -3 1 -11 -18 -18 -42 -4 -36 21 6 21 30 22 26 1z m964 13 c-3 -3 -12 -4
-19 -1 -8 3 -5 6 6 6 11 1 17 -2 13 -5z m-143 -26 c-10 -12 -13 -18 -6 -14 7
4 26 11 42 16 21 6 27 5 24 -4 -6 -15 28 -15 48 1 7 5 23 12 35 15 17 5 21 2
18 -12 -4 -23 20 -33 44 -18 14 9 27 7 62 -9 46 -22 112 -35 103 -21 -3 4 -1
8 5 8 5 0 13 -4 16 -10 3 -5 12 -10 18 -10 8 0 8 3 -1 9 -16 10 57 61 88 61
11 0 43 -16 71 -35 52 -35 60 -39 91 -36 10 1 28 -3 40 -10 21 -11 22 -11 9 4
-7 10 -23 17 -35 17 -20 1 -20 1 3 14 21 11 30 11 59 -1 18 -8 31 -9 27 -4 -3
6 -12 11 -19 11 -19 0 -15 28 5 33 31 8 111 -38 181 -104 37 -35 69 -70 70
-78 2 -7 13 -25 25 -38 12 -14 22 -28 21 -32 -4 -13 14 -51 23 -51 5 0 9 -5 9
-11 0 -5 -4 -7 -10 -4 -15 9 -12 -1 16 -63 14 -31 27 -64 29 -72 6 -28 14 -65
29 -130 8 -36 18 -102 22 -147 l6 -83 -28 15 c-15 8 -51 17 -81 21 -29 3 -58
13 -65 21 -6 8 -33 26 -60 39 -38 19 -53 22 -68 14 -24 -13 -55 -9 -90 9 l-25
14 19 -22 c23 -25 16 -27 -27 -4 -30 15 -31 15 -18 0 19 -24 -1 -21 -35 5
l-29 22 19 -22 c19 -22 19 -22 -3 -22 -12 0 -32 5 -44 11 -12 7 -19 9 -16 5 3
-4 -11 -26 -32 -49 -37 -40 -42 -42 -97 -42 -49 0 -66 6 -110 34 -29 18 -56
31 -59 27 -4 -3 -2 -6 4 -6 5 0 20 -9 33 -20 29 -25 19 -25 -50 0 -39 14 -48
20 -30 20 20 1 14 5 -24 21 -32 13 -60 18 -80 14 -30 -6 -30 -5 -11 11 15 13
16 15 3 11 -9 -3 -34 -8 -55 -12 -30 -4 -33 -3 -15 4 32 15 27 25 -8 17 -23
-4 -29 -2 -24 7 4 6 -5 1 -21 -13 -23 -21 -27 -22 -21 -6 6 17 5 17 -11 5 -16
-12 -15 -10 1 16 l20 30 -37 -28 c-21 -15 -41 -26 -46 -23 -4 3 -21 -8 -37
-25 -16 -17 -38 -35 -49 -41 -12 -6 -6 4 15 27 19 21 28 34 20 29 -8 -4 -39
-35 -69 -67 -39 -42 -56 -55 -62 -45 -6 10 -9 10 -9 1 0 -27 -31 1 -42 39 -11
39 -10 45 20 127 3 9 1 12 -6 7 -15 -9 -15 -7 3 45 14 41 14 43 -1 24 -16 -20
-16 -19 -9 5 4 14 9 45 11 70 6 88 12 119 29 152 10 18 35 69 57 113 22 44 51
92 66 108 14 15 22 27 16 27 -5 0 -23 -17 -41 -37 -18 -21 -32 -34 -33 -30 0
15 122 137 132 131 5 -3 18 6 29 20 11 14 23 26 26 26 3 0 -2 -10 -13 -22z
m847 -5 c13 -16 12 -17 -3 -4 -10 7 -18 15 -18 17 0 8 8 3 21 -13z m-527 -5
c-3 -4 3 -8 12 -8 13 0 15 -3 7 -11 -8 -8 -19 -6 -42 5 -39 20 -39 25 -1 24
16 -1 27 -5 24 -10z m-1404 -18 c0 -5 -2 -10 -4 -10 -3 0 -8 5 -11 10 -3 6 -1
10 4 10 6 0 11 -4 11 -10z m2173 -5 c-3 -9 -8 -14 -10 -11 -3 3 -2 9 2 15 9
16 15 13 8 -4z m242 5 c3 -5 2 -10 -4 -10 -5 0 -13 5 -16 10 -3 6 -2 10 4 10
5 0 13 -4 16 -10z m-235 -41 c-12 -9 -12 -10 3 -5 22 7 49 -17 42 -37 -3 -7 1
-20 10 -27 10 -8 15 -9 15 -1 0 6 5 11 11 11 5 0 7 -5 3 -11 -4 -8 0 -8 15 0
22 12 41 7 41 -11 0 -5 -6 -8 -14 -5 -7 3 -18 1 -24 -5 -8 -8 -18 -6 -34 5
-37 25 -115 99 -97 92 10 -4 20 -1 24 5 4 6 10 9 13 5 4 -3 0 -11 -8 -16z
m-1640 -14 c11 -13 10 -14 -4 -9 -9 3 -16 10 -16 15 0 13 6 11 20 -6z m1950 1
c0 -3 -4 -8 -10 -11 -5 -3 -10 -1 -10 4 0 6 5 11 10 11 6 0 10 -2 10 -4z
m-2450 -16 c0 -5 -5 -10 -11 -10 -5 0 -7 5 -4 10 3 6 8 10 11 10 2 0 4 -4 4
-10z m177 -16 c13 5 14 4 3 -9 -16 -19 -30 -10 -29 18 1 18 2 19 6 4 3 -12 10
-16 20 -13z m83 -23 c0 -15 -8 -37 -17 -51 -15 -22 -15 -23 0 -17 9 3 19 2 22
-3 4 -6 0 -10 -7 -10 -10 0 -9 -3 2 -10 9 -6 17 -5 21 1 4 7 8 5 12 -4 3 -7 1
-20 -4 -28 -5 -8 -9 -9 -9 -2 0 12 -41 5 -51 -9 -6 -10 -59 11 -59 23 0 4 9
14 21 22 l21 15 -23 7 -24 8 24 8 c15 6 21 14 17 24 -3 8 0 15 5 15 6 0 9 8 7
18 -4 12 2 17 19 18 19 2 23 -3 23 -25z m17 -3 c-3 -8 -6 -5 -6 6 -1 11 2 17
5 13 3 -3 4 -12 1 -19z m133 -59 c0 -18 -18 -9 -23 12 -4 16 -3 18 9 8 8 -6
14 -15 14 -20z m1818 -13 c-4 -31 -23 -21 -24 14 -1 25 2 28 13 18 8 -6 13
-21 11 -32z m-1618 24 c0 -5 -2 -10 -4 -10 -3 0 -8 5 -11 10 -3 6 -1 10 4 10
6 0 11 -4 11 -10z m-410 -98 c0 -5 -7 -9 -15 -9 -8 0 -15 4 -15 9 0 4 7 8 15
8 8 0 15 -4 15 -8z m2380 -6 c0 -2 -8 -10 -17 -17 -16 -13 -17 -12 -4 4 13 16
21 21 21 13z m-2590 -26 c0 -5 -8 -10 -17 -10 -15 0 -16 2 -3 10 19 12 20 12
20 0z m-50 -10 c0 -5 -7 -7 -15 -4 -8 4 -15 8 -15 10 0 2 7 4 15 4 8 0 15 -4
15 -10z m2220 -25 c0 -5 -5 -3 -10 5 -5 8 -10 20 -10 25 0 6 5 3 10 -5 5 -8
10 -19 10 -25z m-20 -8 c0 -5 -4 -5 -10 -2 -5 3 -10 14 -10 23 0 15 2 15 10 2
5 -8 10 -19 10 -23z m-2470 -57 c0 -5 -4 -10 -10 -10 -5 0 -10 5 -10 10 0 6 5
10 10 10 6 0 10 -4 10 -10z m776 -18 c6 -12 15 -19 20 -14 4 4 2 -1 -5 -10 -7
-10 -16 -18 -20 -18 -13 1 -54 41 -47 47 3 3 16 -2 28 -13 20 -16 19 -15 -2
10 -23 26 -23 28 -5 24 11 -2 25 -13 31 -26z m-423 2 c3 -4 -1 -13 -9 -22 -11
-11 -18 -12 -27 -3 -8 8 -7 11 7 11 9 0 14 5 11 10 -7 11 8 14 18 4z m312 -3
c-3 -5 -1 -12 5 -16 6 -4 8 -10 5 -15 -3 -5 -1 -11 5 -15 11 -7 4 -25 -10 -25
-5 0 -7 7 -3 15 3 10 1 15 -8 13 -7 -2 -12 6 -12 20 1 31 2 32 14 32 5 0 8 -4
4 -9z m-54 -14 c9 -7 14 -18 11 -26 -3 -10 -6 -10 -12 -1 -5 9 -11 8 -21 -2
-18 -18 -62 -19 -48 -2 6 8 6 14 0 18 -5 3 -12 0 -14 -6 -4 -8 -6 -7 -6 4 -1
12 9 18 32 21 17 2 34 4 37 5 3 1 12 -4 21 -11z m129 -29 c0 -5 -4 -6 -10 -3
-5 3 -10 1 -10 -5 0 -6 -5 -8 -11 -4 -8 5 -8 9 1 14 9 5 9 9 1 14 -6 4 -11 12
-11 18 0 6 9 3 20 -7 11 -10 20 -22 20 -27z m-289 5 c13 -16 12 -17 -3 -4 -10
7 -18 15 -18 17 0 8 8 3 21 -13z m429 7 c0 -5 -4 -10 -10 -10 -5 0 -10 5 -10
10 0 6 5 10 10 10 6 0 10 -4 10 -10z m93 -44 c-1 -18 2 -24 10 -20 9 5 9 4 0
-6 -6 -7 -9 -19 -6 -26 3 -10 -2 -14 -18 -14 -20 0 -21 2 -9 11 12 9 11 10 -7
6 -16 -3 -20 -1 -16 10 3 8 12 12 20 8 11 -3 13 -1 9 10 -3 8 -1 15 4 15 17 0
11 18 -12 41 l-23 23 25 -16 c17 -11 24 -24 23 -42z m-835 13 c-28 -7 -32 -4
-24 16 5 13 9 13 26 3 20 -13 20 -13 -2 -19z m201 16 c3 -4 -2 -11 -11 -16 -9
-5 -24 -16 -32 -24 -16 -17 -23 -11 -22 20 1 11 -3 24 -9 28 -5 5 7 6 29 3 21
-3 41 -8 45 -11z m-69 -30 c0 -12 -29 -3 -34 10 -4 13 -2 14 14 5 11 -6 20
-13 20 -15z m607 13 c2 -5 0 -14 -5 -21 -6 -7 -11 -16 -12 -22 -2 -5 -5 -18
-9 -27 -5 -15 -8 -14 -17 6 -10 21 -9 23 10 19 13 -2 10 2 -9 11 -29 14 -29
14 -5 15 29 1 16 17 -20 24 -14 3 -6 4 18 4 24 -1 46 -5 49 -9z m-519 -13 c-2
-6 -6 -9 -10 -7 -12 3 -9 -13 5 -27 10 -11 10 -13 0 -7 -7 4 -13 2 -13 -4 0
-6 7 -13 15 -16 8 -4 12 -10 9 -15 -6 -11 -34 14 -34 30 0 6 -4 11 -10 11 -16
0 -12 22 8 36 19 15 35 14 30 -1z m406 -14 c3 -5 -3 -11 -15 -14 -16 -4 -18
-3 -8 9 13 16 16 17 23 5z m6 -38 c0 -7 -6 -13 -13 -13 -7 0 -21 6 -30 13 -15
11 -14 12 13 12 17 0 30 -5 30 -12z m-80 -37 c0 -3 -4 -8 -10 -11 -5 -3 -10
-1 -10 4 0 6 5 11 10 11 6 0 10 -2 10 -4z m-310 -49 c0 -2 -10 -12 -22 -23
l-23 -19 19 23 c18 21 26 27 26 19z m-60 -20 c0 -2 -10 -12 -22 -23 l-23 -19
19 23 c18 21 26 27 26 19z m2750 -21 c0 -2 -8 -10 -17 -17 -16 -13 -17 -12 -4
4 13 16 21 21 21 13z m-2985 -16 c3 -5 1 -10 -4 -10 -6 0 -11 5 -11 10 0 6 2
10 4 10 3 0 8 -4 11 -10z m225 -8 c-14 -9 -44 -36 -67 -59 -23 -24 -46 -43
-50 -43 -4 1 20 28 55 60 34 33 68 60 75 59 6 0 1 -8 -13 -17z m-55 -12 c-3
-5 -12 -10 -18 -10 -7 0 -6 4 3 10 19 12 23 12 15 0z m1760 -10 c-3 -5 -13
-10 -21 -10 -8 0 -17 -7 -20 -15 -4 -8 -11 -15 -17 -15 -6 0 0 11 13 25 23 24
58 36 45 15z m-1195 -25 c16 -19 1 -19 -24 0 -16 12 -17 15 -4 15 8 0 21 -7
28 -15z m1545 5 c7 -12 -12 -12 -40 0 -18 8 -17 9 7 9 15 1 30 -3 33 -9z
m-2085 -15 c-7 -9 -15 -13 -19 -10 -3 3 1 10 9 15 21 14 24 12 10 -5z m746
-32 c10 -16 17 -30 17 -33 -1 -3 3 -10 9 -17 13 -17 36 -5 40 20 2 12 7 -5 12
-38 4 -33 12 -65 16 -70 5 -6 18 -37 30 -70 37 -103 50 -125 88 -149 82 -51
211 -77 304 -63 54 9 59 8 77 -14 11 -13 20 -34 21 -46 0 -12 4 -25 10 -28 6
-4 7 5 4 23 -5 24 0 35 25 61 17 17 31 35 31 38 0 4 -5 2 -12 -5 -7 -7 -17
-12 -23 -12 -5 1 4 13 21 28 17 15 44 50 59 77 16 28 32 52 35 55 3 3 6 20 6
38 3 48 30 84 61 80 22 -2 34 -18 74 -97 26 -51 62 -109 80 -127 18 -19 29
-34 24 -34 -5 0 6 -15 24 -34 17 -18 33 -42 34 -54 0 -11 4 -19 8 -17 3 3 28
-22 53 -55 44 -56 66 -73 66 -51 0 5 -7 15 -17 22 -25 21 -98 123 -95 133 2 4
-5 15 -15 22 -16 13 -12 14 32 7 95 -15 215 -8 285 15 87 30 106 46 135 117
l24 60 -3 -41 c-2 -23 -6 -46 -10 -53 -4 -6 -2 -9 6 -6 9 4 14 -2 14 -15 0
-22 -12 -27 -19 -7 -6 14 -12 -72 -8 -126 1 -21 -5 -59 -13 -85 -8 -26 -20
-84 -25 -129 -13 -103 -41 -187 -96 -284 -34 -61 -44 -90 -49 -145 -14 -145
-77 -390 -126 -489 -22 -44 -33 -71 -24 -60 16 19 16 19 9 -5 -8 -30 -62 -137
-83 -165 l-14 -20 7 20 c5 11 8 29 8 41 -1 23 -52 136 -52 115 -1 -9 -5 -10
-13 -3 -20 15 -82 27 -74 13 4 -6 3 -11 -3 -11 -5 0 -12 4 -16 10 -10 16 -37
-1 -30 -19 5 -12 3 -13 -6 -4 -9 9 -15 8 -26 -3 -8 -8 -18 -14 -22 -14 -10 0
-46 27 -102 79 -27 24 -49 40 -49 35 0 -4 -15 5 -32 22 -32 28 -32 28 -9 2 40
-46 17 -41 -26 4 -56 61 -115 108 -133 108 -17 0 -180 161 -180 178 0 5 -7 12
-15 16 -8 3 -25 27 -37 54 -13 27 -27 50 -33 50 -14 1 -33 95 -34 166 0 42 2
56 9 46 5 -8 10 -12 10 -9 0 4 -15 32 -34 63 -33 54 -40 57 -51 16 0 -3 -15
-27 -33 -54 -17 -27 -37 -65 -43 -83 -9 -27 -15 -34 -30 -30 -11 3 -17 2 -14
-3 3 -4 -6 -7 -19 -6 -13 0 -22 5 -18 10 3 5 -2 7 -11 3 -21 -8 -21 -5 -3 37
10 25 22 35 47 41 19 4 40 7 47 6 6 -1 12 3 12 9 0 5 -7 10 -17 10 -14 0 -14
2 2 20 10 11 24 20 31 20 7 0 16 5 20 12 5 8 2 9 -10 5 -13 -5 -16 -3 -12 11
8 24 -31 45 -79 45 -19 0 -35 4 -35 8 0 9 107 22 120 14 6 -3 10 4 11 17 l0
23 9 -22 c5 -13 14 -23 20 -23 14 0 13 1 -12 57 -20 42 -27 48 -53 47 -20 0
-37 8 -51 23 -17 19 -30 24 -75 23 -113 0 -107 2 -119 -35 -13 -38 -12 -38
-34 -29 -8 3 -12 12 -10 19 3 7 -4 16 -15 20 -12 3 -21 10 -21 14 0 14 30 34
38 27 7 -7 8 -11 11 -37 0 -5 5 -8 11 -4 5 3 7 12 4 20 -3 8 1 24 10 37 12 17
16 19 16 6 0 -16 36 -35 47 -25 2 3 -5 8 -16 12 -17 5 -19 10 -11 25 7 13 6
19 -5 24 -8 3 -15 11 -15 18 0 8 3 9 8 3 4 -6 21 -8 37 -5 21 4 26 8 17 14 -7
4 -19 5 -27 2 -26 -9 -16 4 16 23 23 14 38 17 58 11 14 -5 38 -11 53 -14 l28
-6 -25 36 c-14 20 -25 42 -25 48 0 7 -9 12 -20 13 -11 1 -18 -2 -15 -7 3 -4
-5 -6 -17 -2 l-23 5 20 -24 20 -24 -26 23 c-14 12 -35 22 -47 22 -11 0 -24 5
-28 12 -5 8 -2 9 9 5 24 -9 21 0 -4 14 -18 9 -27 7 -52 -12 -22 -16 -29 -18
-24 -6 3 8 3 18 -1 22 -4 3 -7 14 -7 23 0 9 -4 16 -10 15 -5 0 -16 5 -23 13
-10 11 -8 15 8 24 11 6 17 16 14 22 -5 8 -1 9 12 4 10 -3 1 9 -20 27 -45 38
-43 52 8 55 40 3 109 -28 138 -62 17 -20 18 -20 11 -1 -6 17 -4 18 8 8 8 -7
25 -11 38 -10 19 1 22 5 17 30 -3 16 -6 40 -6 52 0 16 -8 26 -27 33 -22 8 -24
11 -8 12 19 1 19 1 2 11 -10 6 -27 9 -38 6 -34 -9 -20 11 16 23 39 13 39 11
24 63 -8 31 -7 43 6 63 20 31 29 30 51 -3z m641 21 c-3 -3 -12 -4 -19 -1 -8 3
-5 6 6 6 11 1 17 -2 13 -5z m578 -14 c-20 -22 -31 -20 -22 5 4 8 14 15 23 15
16 0 16 -2 -1 -20z m181 -5 c-6 -24 -5 -25 21 -19 16 4 31 11 34 17 4 5 11 7
17 3 12 -7 11 -101 -2 -113 -5 -4 -7 1 -4 13 3 12 -1 32 -9 45 -8 13 -12 17
-10 8 8 -26 -129 -67 -163 -49 -14 7 -22 6 -34 -5 -8 -8 -18 -15 -22 -15 -4 0
7 16 26 35 28 29 36 32 49 22 10 -7 8 -2 -3 11 -18 21 -18 23 -3 40 10 10 15
21 12 24 -3 2 18 5 46 7 51 2 51 2 45 -24z m-1244 -14 c-9 -16 -18 -28 -21
-26 -4 5 27 55 34 55 2 0 -4 -13 -13 -29z m414 7 c6 -7 9 -20 5 -29 -5 -13
-14 -10 -51 19 l-45 35 39 -6 c22 -4 45 -12 52 -19z m111 16 c-3 -3 -12 -4
-19 -1 -8 3 -5 6 6 6 11 1 17 -2 13 -5z m879 -22 c-4 -3 -14 2 -24 12 -16 18
-16 18 6 6 13 -6 21 -14 18 -18z m-2566 7 c12 -8 9 -10 -12 -6 -16 2 -28 0
-28 -4 0 -5 -8 -9 -17 -9 -16 1 -16 2 1 15 23 18 36 18 56 4z m1726 -50 c25
-23 32 -59 13 -59 -5 0 -7 -4 -4 -10 14 -23 -12 -7 -45 27 -32 33 -32 35 -7
19 15 -9 33 -14 39 -10 6 4 -4 15 -26 26 -20 10 -41 16 -46 13 -6 -3 -10 -1
-10 5 0 7 -10 20 -22 31 -22 19 -22 19 31 0 30 -11 64 -30 77 -42z m72 32 c3
-8 -5 -7 -22 4 -32 21 -33 27 -4 16 12 -4 24 -14 26 -20z m172 23 c0 -3 -12
-20 -26 -37 -26 -31 -27 -46 -8 -107 6 -21 3 -20 -25 13 -19 21 -38 34 -45 30
-8 -5 -7 -2 1 8 8 9 9 20 3 29 -8 12 -10 11 -11 -5 0 -16 -3 -14 -11 8 -18 50
-2 63 85 66 20 0 37 -2 37 -5z m213 -58 c-44 -51 -53 -59 -58 -55 -10 11 20
59 34 54 8 -3 11 0 8 9 -4 11 -1 13 11 10 16 -5 16 -5 0 9 -13 10 -15 16 -5
26 21 21 31 -28 10 -53z m-78 36 c-3 -3 -11 0 -18 7 -9 10 -8 11 6 5 10 -3 15
-9 12 -12z m-1785 5 c0 -2 -10 -12 -22 -23 l-23 -19 19 23 c18 21 26 27 26 19z
m905 -15 c-3 -3 -11 0 -18 7 -9 10 -8 11 6 5 10 -3 15 -9 12 -12z m830 8 c3
-5 1 -10 -4 -10 -6 0 -11 5 -11 10 0 6 2 10 4 10 3 0 8 -4 11 -10z m-2000 -10
c3 -6 -1 -7 -9 -4 -18 7 -21 14 -7 14 6 0 13 -4 16 -10z m2943 -15 c-3 -3 -9
2 -12 12 -6 14 -5 15 5 6 7 -7 10 -15 7 -18z m-3043 5 c3 -5 2 -10 -4 -10 -5
0 -13 5 -16 10 -3 6 -2 10 4 10 5 0 13 -4 16 -10z m225 0 c0 -5 -5 -10 -11
-10 -5 0 -7 5 -4 10 3 6 8 10 11 10 2 0 4 -4 4 -10z m1034 -3 c15 -11 17 -18
8 -33 -9 -16 -11 -16 -12 -3 0 9 -7 23 -17 30 -15 13 -15 12 -5 -8 17 -30 15
-37 -4 -18 -16 15 -13 45 4 45 4 0 16 -6 26 -13z m571 3 c3 -5 2 -10 -4 -10
-5 0 -13 5 -16 10 -3 6 -2 10 4 10 5 0 13 -4 16 -10z m285 -26 c0 -2 -11 2
-25 8 -14 6 -25 15 -25 20 0 5 11 1 25 -8 14 -9 25 -18 25 -20z m25 26 c3 -5
-1 -10 -9 -10 -9 0 -16 5 -16 10 0 6 4 10 9 10 6 0 13 -4 16 -10z m-1982 -22
c-13 -6 -23 -15 -23 -20 0 -4 -6 -8 -12 -8 -7 1 -2 10 11 20 13 11 28 20 35
19 6 0 1 -5 -11 -11z m1167 -33 c0 -14 -2 -25 -4 -25 -2 0 -6 11 -8 25 -3 14
-1 25 3 25 5 0 9 -11 9 -25z m-1216 -17 c-5 -9 -2 -9 9 1 21 17 22 3 1 -24
-12 -16 -16 -17 -23 -6 -10 16 -4 41 11 41 5 0 6 -6 2 -12z m1627 -5 c13 -16
12 -17 -3 -4 -17 13 -22 21 -14 21 2 0 10 -8 17 -17z m827 -16 c5 -43 -24
-129 -58 -169 -46 -55 -54 -46 -14 13 33 49 45 87 24 74 -6 -4 -10 10 -10 36
0 68 51 107 58 46z m-2516 -5 c-7 -2 -10 -8 -7 -12 3 -5 0 -12 -6 -16 -8 -4
-9 -3 -5 4 4 7 2 12 -4 12 -7 0 -6 5 2 14 7 8 17 11 23 8 5 -3 4 -7 -3 -10z
m1218 -4 c0 -18 -2 -20 -9 -8 -6 8 -7 18 -5 22 9 14 14 9 14 -14z m-1090 -3
c-15 -18 1 -20 18 -3 6 6 14 9 18 6 9 -9 -35 -30 -47 -23 -9 6 6 35 18 35 3 0
0 -7 -7 -15z m-84 -7 c4 -6 -3 -19 -16 -30 -33 -27 -41 -22 -22 12 18 32 27
36 38 18z m56 -17 c2 -17 -2 -25 -14 -27 -21 -3 -21 -3 -8 32 12 30 17 29 22
-5z m228 -22 c0 -5 -2 -9 -4 -9 -2 0 -11 -3 -19 -6 -13 -5 -16 9 -8 33 2 6 31
-10 31 -18z m847 -11 c-3 -7 -5 -2 -5 12 0 14 2 19 5 13 2 -7 2 -19 0 -25z
m783 -3 c0 -5 -5 -3 -10 5 -5 8 -10 20 -10 25 0 6 5 3 10 -5 5 -8 10 -19 10
-25z m-1490 -11 c0 -2 -13 2 -30 11 -16 9 -30 18 -30 21 0 2 14 -2 30 -11 17
-9 30 -18 30 -21z m-524 -22 c-18 -16 -18 -16 -8 4 6 12 10 24 8 26 -1 3 2 2
8 -3 7 -6 4 -15 -8 -27z m104 31 c0 -11 -51 -33 -61 -27 -18 11 -8 25 12 19
15 -5 19 -4 15 4 -4 7 1 11 13 11 12 0 21 -3 21 -7z m305 -3 c-3 -5 -12 -10
-18 -10 -7 0 -6 4 3 10 19 12 23 12 15 0z m205 -49 c3 -2 -3 -1 -12 2 -9 3
-19 2 -22 -4 -2 -5 -3 -4 -2 3 2 7 -6 24 -18 38 -17 20 -14 19 14 -5 19 -16
37 -32 40 -34z m721 42 c13 -16 12 -17 -3 -4 -10 7 -18 15 -18 17 0 8 8 3 21
-13z m450 -10 c-12 -20 -14 -14 -5 12 4 9 9 14 11 11 3 -2 0 -13 -6 -23z
m-1328 -13 c3 -11 1 -20 -4 -20 -5 0 -9 9 -9 20 0 11 2 20 4 20 2 0 6 -9 9
-20z m267 11 c0 -5 -10 -11 -22 -14 -22 -6 -22 -6 -4 8 23 17 26 18 26 6z m40
-1 c0 -5 -4 -10 -9 -10 -6 0 -13 5 -16 10 -3 6 1 10 9 10 9 0 16 -4 16 -10z
m1269 -20 c11 -24 11 -24 -3 -6 -9 11 -16 24 -16 30 0 12 5 7 19 -24z m-1512
14 c-3 -3 -12 -4 -19 -1 -8 3 -5 6 6 6 11 1 17 -2 13 -5z m-446 -32 c-7 -2
-19 2 -29 9 -9 7 -7 2 6 -12 15 -17 30 -25 45 -22 12 2 31 -3 42 -11 20 -15
20 -15 -2 -9 -14 3 -23 1 -23 -6 0 -7 -5 -9 -11 -5 -8 4 -7 9 2 16 10 7 6 8
-12 4 -20 -4 -32 1 -53 23 -31 32 -19 46 23 27 13 -5 18 -12 12 -14z m289 9
c0 -5 -7 -12 -16 -15 -14 -5 -15 -4 -4 9 14 17 20 19 20 6z m2127 -13 c-3 -8
-6 -5 -6 6 -1 11 2 17 5 13 3 -3 4 -12 1 -19z m-1972 2 c3 -5 -1 -10 -9 -10
-9 0 -16 5 -16 10 0 6 4 10 9 10 6 0 13 -4 16 -10z m-496 -33 c0 -21 -1 -21
-9 -2 -12 28 -12 37 0 30 6 -3 10 -16 9 -28z m461 29 c0 -2 -7 -7 -16 -10 -8
-3 -12 -2 -9 4 6 10 25 14 25 6z m863 -91 c31 -10 55 -21 52 -23 -7 -8 -104
29 -129 49 -15 11 -31 30 -37 41 -7 12 3 7 23 -13 20 -20 58 -42 91 -54z
m-1009 53 c-17 -19 -17 -21 -1 -15 11 4 17 1 17 -8 0 -16 -17 -16 -36 0 -10 8
-7 14 9 27 30 24 34 22 11 -4z m231 12 c3 -5 1 -10 -4 -10 -6 0 -11 5 -11 10
0 6 2 10 4 10 3 0 8 -4 11 -10z m200 0 c3 -5 1 -10 -4 -10 -6 0 -11 5 -11 10
0 6 2 10 4 10 3 0 8 -4 11 -10z m546 -17 l24 -27 -32 23 c-33 23 -40 31 -25
31 5 0 19 -12 33 -27z m439 24 c0 -2 -9 -14 -20 -27 -11 -13 -20 -19 -20 -15
0 5 7 17 17 27 15 17 23 22 23 15z m-1254 -22 c-35 -19 -37 -19 -30 0 4 8 18
15 33 15 l26 0 -29 -15z m155 -12 c13 -17 13 -17 -6 -3 -11 8 -22 16 -24 17
-2 2 0 3 6 3 6 0 17 -8 24 -17z m149 7 c-8 -5 -22 -9 -30 -9 -10 0 -8 3 5 9
27 12 43 12 25 0z m-387 -12 c-6 -11 -43 -10 -43 1 0 5 11 8 24 7 13 0 22 -4
19 -8z m2118 -2 c-18 -22 -106 -56 -158 -61 -44 -4 -42 -3 16 10 35 8 82 26
105 39 50 29 51 30 37 12z m-1801 -6 c-18 -12 -30 -13 -30 -2 0 4 10 9 22 9
18 2 20 0 8 -7z m650 0 c-8 -5 -19 -10 -25 -10 -5 0 -3 5 5 10 8 5 20 10 25
10 6 0 3 -5 -5 -10z m750 -26 c0 -2 -9 0 -20 6 -11 6 -20 13 -20 16 0 2 9 0
20 -6 11 -6 20 -13 20 -16z m-1660 6 c-20 -13 -40 -13 -40 0 0 6 12 10 28 10
21 0 24 -2 12 -10z m305 -9 c-8 -14 -42 -14 -51 0 -5 9 1 10 20 5 17 -4 26 -2
26 5 0 7 3 10 6 6 3 -3 3 -10 -1 -16z m-615 -1 c0 -5 -5 -10 -11 -10 -5 0 -7
5 -4 10 3 6 8 10 11 10 2 0 4 -4 4 -10z m533 4 c3 -4 -1 -13 -9 -21 -17 -18
-29 -11 -21 12 7 16 19 20 30 9z m-328 -14 c7 -12 -2 -12 -30 0 -19 8 -19 9 2
9 12 1 25 -3 28 -9z m-143 -12 c-15 -15 -16 -31 0 -22 8 5 9 2 4 -11 -5 -15
-4 -16 9 -5 18 15 19 1 1 -22 -16 -22 -27 -23 -20 -4 3 9 -5 21 -20 31 -33 22
-33 33 2 38 15 2 29 5 32 6 2 0 -1 -4 -8 -11z m2093 -3 c6 -2 -17 -3 -50 -4
-33 0 -69 4 -80 8 -19 8 107 4 130 -4z m-1600 -5 c-3 -5 -11 -10 -16 -10 -6 0
-7 5 -4 10 3 6 11 10 16 10 6 0 7 -4 4 -10z m748 3 c-7 -2 -21 -2 -30 0 -10 3
-4 5 12 5 17 0 24 -2 18 -5z m-872 -30 c13 -15 12 -15 -6 -6 -11 6 -27 13 -35
16 -10 4 -8 6 6 6 12 1 28 -6 35 -16z m-431 -27 c-7 -14 -10 -35 -7 -48 l6
-23 -18 24 c-18 23 -18 24 0 42 11 11 19 24 19 31 0 6 3 8 7 5 3 -4 1 -18 -7
-31z m730 24 c0 -5 -2 -10 -4 -10 -3 0 -8 5 -11 10 -3 6 -1 10 4 10 6 0 11 -4
11 -10z m-600 -20 c0 -3 -6 -12 -12 -19 -9 -10 -9 -12 -1 -7 28 15 20 -15 -9
-39 l-33 -26 33 16 c29 14 32 14 32 0 0 -9 -10 -19 -23 -24 -13 -5 -31 -21
-40 -35 -10 -14 -22 -26 -28 -26 -8 0 -7 5 1 16 11 12 11 15 0 12 -7 -2 -15 3
-18 11 -3 8 0 11 7 7 7 -5 9 -1 5 8 -4 9 1 18 10 22 9 3 14 10 11 14 -3 5 0
12 6 16 8 5 9 3 4 -6 -5 -9 -4 -11 4 -6 6 4 9 12 6 17 -4 5 -3 15 2 22 4 6 8
15 9 20 3 13 4 14 19 14 8 0 15 -3 15 -7z m235 -10 c22 -18 19 -30 -7 -30 -19
0 -20 2 -8 10 12 8 11 10 -7 10 -28 0 -53 10 -53 21 0 12 57 4 75 -11z m-93
-4 c19 -14 14 -26 -11 -26 -14 0 -14 2 -1 10 12 7 10 11 -10 19 -14 5 -18 10
-10 10 8 0 23 -6 32 -13z m298 -6 c0 -5 -7 -7 -15 -4 -8 4 -23 0 -33 -7 -15
-13 -16 -12 -3 4 14 18 51 24 51 7z m45 0 c-3 -5 -12 -10 -18 -10 -7 0 -6 4 3
10 19 12 23 12 15 0z m135 -22 c0 -5 -5 -8 -11 -8 -5 0 -7 5 -4 10 3 6 -2 10
-12 10 -15 0 -16 2 -3 10 14 8 29 -3 30 -22z m-510 8 c0 -3 -4 -8 -10 -11 -5
-3 -10 -1 -10 4 0 6 5 11 10 11 6 0 10 -2 10 -4z m235 -5 c-3 -5 4 -13 16 -16
11 -4 18 -9 16 -11 -7 -7 -57 18 -57 28 0 4 7 8 16 8 8 0 13 -4 9 -9z m345 0
c0 -5 -7 -12 -16 -15 -14 -5 -15 -4 -4 9 14 17 20 19 20 6z m-210 -31 c4 0 10
-7 14 -15 4 -10 -1 -15 -15 -15 -12 0 -17 4 -13 11 3 6 1 15 -6 19 -8 5 -9 13
-4 21 7 11 9 10 12 -3 2 -10 7 -18 12 -18z m1900 17 c11 3 11 1 -2 -6 -17 -12
-48 -5 -48 10 0 6 7 6 18 1 9 -5 24 -7 32 -5z m-2220 -7 c0 -6 12 -8 28 -5 15
3 20 2 12 -1 -8 -4 -30 -13 -48 -22 -18 -8 -36 -12 -39 -8 -3 3 2 6 12 6 14 0
15 3 6 14 -9 11 -9 15 1 19 21 9 28 8 28 -3z m-320 -22 c20 -22 28 -54 10 -43
-6 3 -7 -1 -4 -9 3 -9 2 -16 -4 -16 -10 0 -32 52 -32 76 0 19 6 17 30 -8z
m435 12 c11 -5 16 -9 10 -10 -44 -7 -53 -6 -48 7 6 15 10 15 38 3z m75 -9 c0
-5 -9 -7 -20 -4 -11 3 -20 7 -20 9 0 2 9 4 20 4 11 0 20 -4 20 -9z m254 -3
c-4 -7 -14 -21 -23 -32 -15 -18 -15 -18 9 -11 25 8 25 7 7 -13 -10 -11 -15
-22 -10 -24 4 -3 3 -4 -3 -2 -7 1 -21 -4 -33 -12 -17 -12 -21 -12 -23 -2 0 7
-2 18 -2 23 -1 6 -5 16 -9 23 -5 7 -3 12 6 12 20 0 28 -25 14 -39 -6 -6 -9
-11 -6 -11 3 0 14 10 25 22 12 13 13 18 4 13 -13 -8 -13 -7 0 11 36 49 62 73
44 42z m-344 -16 c0 -5 -10 -14 -22 -20 -23 -11 -23 -11 -2 -11 12 -1 27 5 34
13 17 21 35 10 37 -21 1 -23 0 -24 -9 -10 -7 14 -17 16 -43 11 -38 -7 -52 7
-29 30 17 17 34 21 34 8z m-815 -12 c3 -5 2 -10 -4 -10 -5 0 -13 5 -16 10 -3
6 -2 10 4 10 5 0 13 -4 16 -10z m46 -17 c13 -16 12 -17 -3 -4 -10 7 -18 15
-18 17 0 8 8 3 21 -13z m1000 4 c-6 -8 -9 -17 -6 -20 3 -4 2 -5 -2 -2 -3 3
-18 -5 -32 -17 l-26 -23 19 23 c11 12 15 22 10 22 -5 1 2 7 16 15 32 18 35 18
21 2z m-482 -23 c-24 -26 -40 -25 -19 1 19 23 0 18 -29 -7 l-26 -23 23 26 c13
15 34 27 48 27 l25 0 -22 -24z m-469 -10 c0 -2 -7 -4 -15 -4 -8 0 -15 4 -15
10 0 5 7 7 15 4 8 -4 15 -8 15 -10z m487 -9 c-13 -27 -27 -33 -27 -12 0 14 19
37 31 37 4 0 2 -11 -4 -25z m83 17 c0 -4 -5 -13 -12 -20 -9 -9 -8 -12 7 -12
10 0 16 -3 12 -6 -3 -3 -15 -3 -27 1 -16 5 -18 10 -10 20 8 10 7 14 -2 18 -7
3 -3 6 10 6 12 1 22 -3 22 -7z m173 -19 c6 -34 -6 -59 -36 -74 -21 -11 -21
-10 3 16 l25 28 -27 -19 c-15 -10 -28 -24 -28 -31 0 -12 -59 -45 -89 -49 -9
-2 -29 -6 -45 -10 -23 -6 -27 -4 -21 7 5 8 -3 4 -17 -8 -28 -26 -43 -30 -35
-9 3 7 0 19 -6 25 -8 8 -4 18 17 39 20 19 27 22 23 9 -5 -14 -3 -16 12 -8 35
19 67 8 62 -22 -1 -5 3 -6 9 -2 6 3 8 11 4 16 -3 5 -2 9 3 8 4 -1 15 -1 23 0
13 1 13 2 0 11 -8 5 -10 10 -4 10 7 0 15 11 18 25 4 14 11 25 16 25 13 0 13
-13 -1 -27 -8 -8 -8 -13 0 -18 7 -4 10 -1 9 7 -2 7 3 12 10 10 8 -1 11 2 7 8
-3 5 2 10 11 10 10 0 14 3 11 7 -7 7 21 43 33 43 4 0 10 -12 13 -27z m-443 -3
c0 -5 -2 -10 -4 -10 -3 0 -8 5 -11 10 -3 6 -1 10 4 10 6 0 11 -4 11 -10z m550
-3 c0 -2 -10 -12 -22 -23 l-23 -19 19 23 c18 21 26 27 26 19z m100 -10 c0 -2
-12 -14 -27 -28 l-28 -24 24 28 c23 25 31 32 31 24z m-603 -37 c-12 -31 -31
-43 -20 -12 6 17 23 42 28 42 2 0 -2 -13 -8 -30z m-841 -8 c-4 -3 -14 2 -24
12 -16 18 -16 18 6 6 13 -6 21 -14 18 -18z m899 8 c-3 -5 -11 -10 -16 -10 -6
0 -7 5 -4 10 3 6 11 10 16 10 6 0 7 -4 4 -10z m-704 -42 l34 -31 -39 23 c-47
29 -46 5 2 -25 35 -22 44 -42 10 -24 -18 10 -20 9 -15 -5 5 -13 3 -15 -12 -7
-14 8 -20 6 -29 -13 -9 -21 -42 -32 -42 -14 0 4 7 8 16 8 8 0 13 4 10 9 -3 5
7 15 24 23 l29 14 -29 31 c-27 29 -27 38 1 42 3 1 21 -13 40 -31z m229 16 c0
-2 -7 -4 -15 -4 -8 0 -15 4 -15 10 0 5 7 7 15 4 8 -4 15 -8 15 -10z m987 -9
c0 -8 -4 -12 -9 -9 -5 3 -6 10 -3 15 9 13 12 11 12 -6z m-507 -17 c0 -6 -6 -5
-15 2 -8 7 -15 14 -15 16 0 2 7 1 15 -2 8 -4 15 -11 15 -16z m935 -8 c3 -6 0
-10 -7 -10 -18 1 -49 26 -42 33 8 7 40 -8 49 -23z m-936 -17 c31 -21 33 -25
15 -22 -4 0 -11 -5 -16 -13 -8 -10 -9 -10 -5 2 2 8 -3 21 -11 29 -12 12 -15
12 -23 0 -5 -8 -9 -17 -9 -21 0 -5 -5 -8 -12 -8 -9 0 -9 3 0 12 17 17 15 33
-3 18 -12 -10 -15 -10 -15 1 0 12 -2 12 -9 0 -6 -10 -10 -10 -16 -1 -9 14 3
27 30 32 22 5 26 4 74 -29z m571 -13 c62 -32 81 -50 75 -71 -4 -12 1 -23 13
-30 17 -11 18 -16 9 -37 -9 -19 -8 -26 3 -32 8 -5 24 -16 35 -25 20 -16 20
-16 -4 -9 -14 4 -21 2 -17 -4 8 -13 -15 -31 -53 -42 -20 -5 -33 -5 -37 2 -4 6
-10 5 -15 -3 -7 -11 -9 -10 -9 4 0 10 -4 16 -9 12 -5 -3 -12 4 -16 15 -3 11
-14 21 -23 21 -9 1 1 5 23 10 22 4 54 6 70 4 22 -4 25 -3 11 3 -19 8 -18 9 5
16 15 5 19 9 11 13 -10 4 -10 8 0 21 10 12 10 14 1 8 -9 -5 -11 -2 -7 9 4 8 1
22 -6 30 -16 20 -44 20 -36 0 3 -8 2 -14 -2 -14 -21 4 -22 -3 -1 -21 l24 -20
-25 13 c-45 23 -70 42 -70 53 0 6 -16 15 -35 21 -48 15 -44 3 8 -25 72 -38
120 -92 82 -92 -8 0 -12 6 -9 14 7 18 -27 30 -39 14 -6 -10 -8 -9 -4 3 6 17
-30 59 -50 59 -6 0 -20 12 -31 27 -18 25 -18 29 -5 50 9 13 22 23 29 23 8 0
14 4 14 10 0 11 24 3 90 -30z m60 30 c0 -5 -4 -10 -10 -10 -5 0 -10 5 -10 10
0 6 5 10 10 10 6 0 10 -4 10 -10z m-359 -26 c14 -16 18 -25 9 -22 -8 3 -24 1
-35 -4 -19 -9 -19 -8 -2 5 12 10 14 17 8 22 -10 6 -16 25 -8 25 2 0 14 -12 28
-26z m-1024 10 c-3 -3 -12 -4 -19 -1 -8 3 -5 6 6 6 11 1 17 -2 13 -5z m194
-11 c13 -16 12 -17 -3 -4 -10 7 -18 15 -18 17 0 8 8 3 21 -13z m74 7 c7 -12
-2 -12 -30 0 -19 8 -19 9 2 9 12 1 25 -3 28 -9z m186 -7 c13 -16 12 -17 -3 -4
-10 7 -18 15 -18 17 0 8 8 3 21 -13z m1027 -19 c61 -17 86 -33 64 -41 -6 -3
-10 -9 -6 -14 13 -21 -65 -7 -114 21 -81 47 -52 65 56 34z m1933 -1 c13 -16
12 -17 -3 -4 -10 7 -18 15 -18 17 0 8 8 3 21 -13z m-3471 -1 c0 -15 -11 -21
-27 -15 -12 5 -12 7 -1 14 17 11 28 11 28 1z m378 -15 c8 -10 5 -12 -14 -12
-13 1 -27 5 -31 10 -5 4 -2 5 5 1 6 -4 12 -2 12 3 0 15 15 14 28 -2z m589 7
c-3 -3 -12 -4 -19 -1 -8 3 -5 6 6 6 11 1 17 -2 13 -5z m29 -26 c4 -6 3 -8 -3
-5 -6 4 -14 0 -17 -9 -5 -12 -2 -15 10 -10 14 5 15 4 5 -8 -14 -17 -42 -14
-73 10 l-23 16 23 -5 c19 -4 21 -3 11 9 -9 12 -5 14 24 14 20 0 39 -5 43 -12z
m-858 -7 c11 -7 10 -10 -3 -15 -20 -7 -38 1 -30 15 7 11 16 11 33 0z m-58 -11
c0 -5 -5 -10 -11 -10 -5 0 -7 5 -4 10 3 6 8 10 11 10 2 0 4 -4 4 -10z m477 4
c-3 -3 -12 -4 -19 -1 -8 3 -5 6 6 6 11 1 17 -2 13 -5z m73 -5 c0 -5 -4 -8 -9
-5 -5 4 -12 0 -14 -6 -3 -8 -6 -6 -6 5 -1 9 6 17 14 17 8 0 15 -5 15 -11z
m-50 -9 c0 -5 -5 -10 -11 -10 -5 0 -7 5 -4 10 3 6 8 10 11 10 2 0 4 -4 4 -10z
m-195 -20 c3 -5 2 -10 -4 -10 -5 0 -13 5 -16 10 -3 6 -2 10 4 10 5 0 13 -4 16
-10z m495 0 c8 -5 11 -10 5 -10 -5 0 -17 5 -25 10 -8 5 -10 10 -5 10 6 0 17
-5 25 -10z m365 0 c3 -6 -1 -7 -9 -4 -18 7 -21 14 -7 14 6 0 13 -4 16 -10z
m360 0 c3 -5 -1 -10 -9 -10 -9 0 -16 5 -16 10 0 6 4 10 9 10 6 0 13 -4 16 -10z
m-1605 -42 c0 -13 -17 -9 -34 8 -22 22 -20 25 9 12 14 -6 25 -15 25 -20z m45
1 c13 -20 0 -16 -25 8 -23 23 -23 24 -3 14 12 -6 25 -16 28 -22z m1263 -30
c-14 -9 -38 0 -38 13 0 6 6 5 15 -2 23 -19 18 0 -7 29 -18 21 -16 20 10 -3 21
-20 28 -32 20 -37z m-80 25 c-2 -10 10 -23 30 -34 28 -16 30 -18 12 -23 -11
-3 -18 -1 -14 4 5 9 -8 13 -32 10 -7 -1 -14 8 -17 19 -3 11 -1 20 5 20 5 0 6
5 3 10 -3 6 -1 10 5 10 6 0 10 -7 8 -16z m2304 4 c-8 -8 1 -17 37 -34 60 -27
67 -38 47 -69 -13 -20 -25 -25 -56 -25 -21 0 -50 5 -64 11 -25 12 -25 13 -10
48 18 43 42 81 51 81 4 0 2 -5 -5 -12z m-3722 -8 c0 -5 -2 -10 -4 -10 -3 0 -8
5 -11 10 -3 6 -1 10 4 10 6 0 11 -4 11 -10z m689 -23 c0 -21 -1 -21 -9 -2 -12
28 -12 37 0 30 6 -3 10 -16 9 -28z m-611 -2 c11 -10 7 -10 -22 -1 -20 6 -36
15 -36 19 0 11 41 -2 58 -18z m3732 0 c55 -35 50 -39 -7 -8 -58 32 -60 33 -44
33 6 0 29 -11 51 -25z m-510 11 c0 -2 -8 -10 -17 -17 -16 -13 -17 -12 -4 4 13
16 21 21 21 13z m380 -5 c0 -3 -8 -15 -16 -26 -16 -19 -16 -19 -9 5 l7 25 -28
-25 -29 -25 23 26 c20 23 53 35 52 20z m-393 -65 c19 -38 12 -32 -23 19 -14
22 -19 33 -10 25 10 -7 24 -27 33 -44z m133 7 c0 -7 -7 -13 -15 -13 -8 0 -12
6 -9 14 3 8 0 17 -5 21 -6 3 -8 11 -5 17 8 13 34 -18 34 -39z m-3353 31 c-3
-3 -12 -4 -19 -1 -8 3 -5 6 6 6 11 1 17 -2 13 -5z m3493 -22 c39 -3 63 -11 84
-29 23 -19 25 -24 10 -21 -10 2 -19 -3 -19 -10 0 -12 -23 -32 -37 -32 -5 0 -7
5 -5 12 1 6 -7 13 -18 15 -17 3 -18 2 -5 -7 12 -9 7 -11 -22 -8 -20 2 -34 0
-32 -4 8 -13 -5 -9 -31 8 -15 10 -37 14 -55 12 -36 -5 -39 -1 -7 12 l22 9 -24
0 c-23 1 -22 3 15 31 23 18 45 27 54 23 8 -4 40 -9 70 -11z m-3600 3 c0 -2
-10 -9 -22 -15 -22 -11 -22 -10 -4 4 21 17 26 19 26 11z m930 -10 c-7 -8 -17
-15 -22 -15 -6 0 -5 7 2 15 7 8 17 15 22 15 6 0 5 -7 -2 -15z m-540 -30 c0 -5
-5 -3 -10 5 -8 13 -10 13 -10 -2 0 -9 5 -18 11 -20 6 -2 12 -16 12 -31 2 -26
17 -39 17 -14 0 8 4 7 11 -3 8 -11 12 -12 16 -2 2 6 9 10 14 6 15 -9 10 8 -8
28 -16 18 -16 18 0 12 10 -3 17 -1 17 5 0 6 -4 11 -10 11 -5 0 -10 5 -10 11 0
8 5 7 15 -1 9 -7 14 -18 11 -25 -2 -6 9 -26 25 -43 17 -18 25 -32 18 -32 -8 0
-8 -4 1 -15 6 -8 10 -20 8 -27 -3 -7 5 -20 16 -29 20 -16 20 -17 -7 -14 -15 2
-25 -1 -21 -6 3 -5 10 -7 15 -4 5 4 14 -6 20 -22 7 -16 13 -23 16 -15 3 9 12
7 33 -8 32 -23 44 -26 34 -7 -4 7 -3 9 2 4 5 -5 9 -14 9 -20 0 -7 6 -13 13
-13 6 -1 19 -2 27 -3 8 0 15 -6 15 -12 0 -5 -4 -8 -10 -4 -5 3 -7 -9 -5 -30 3
-19 1 -35 -3 -35 -5 0 -8 -10 -7 -22 2 -24 -15 -49 -28 -41 -4 2 -5 9 -2 14 4
5 1 9 -4 9 -6 0 -11 -4 -11 -10 0 -17 -36 -11 -54 9 -11 12 -25 17 -37 14 -15
-4 -17 -8 -8 -13 7 -5 18 -6 26 -3 15 6 18 -13 3 -22 -6 -4 -8 -10 -5 -15 9
-14 -16 -23 -28 -11 -16 16 -32 14 -18 -2 6 -8 8 -17 5 -20 -4 -4 7 -22 25
-42 17 -20 31 -33 31 -29 0 3 7 1 15 -6 9 -7 13 -15 10 -18 -3 -3 -1 -10 4
-16 6 -7 4 -16 -4 -23 -9 -8 -16 -9 -20 -3 -3 6 -1 10 4 10 6 0 9 10 7 23 -3
12 -5 24 -5 27 -1 3 -5 -1 -10 -8 -4 -8 -6 -29 -4 -48 3 -32 2 -33 -21 -24
-29 10 -36 6 -29 -21 5 -16 8 -17 21 -7 12 10 11 6 -2 -14 -18 -27 -36 -37
-36 -19 0 13 -37 2 -51 -15 -9 -11 -14 -10 -28 4 -22 23 -47 76 -62 134 -6 26
-16 45 -21 42 -6 -4 -5 3 1 15 12 22 3 29 -15 11 -8 -8 -15 -6 -24 5 -11 13
-10 14 5 9 12 -5 16 -4 12 3 -8 13 27 46 38 36 4 -5 3 1 -3 12 -8 16 -7 24 7
40 17 19 17 21 -1 38 -12 11 -18 13 -18 4 0 -7 -10 -13 -21 -14 l-22 -2 23 21
c12 11 18 23 13 27 -4 3 -9 17 -10 31 -1 14 0 20 3 14 3 -7 13 -10 23 -7 13 3
17 11 13 25 -5 19 -2 20 24 14 16 -4 30 -11 32 -16 2 -5 9 -7 16 -4 14 5 9 71
-5 80 -5 3 -9 2 -8 -3 1 -4 1 -19 0 -32 -2 -44 -13 -14 -17 50 -3 34 -12 68
-20 76 -16 17 -17 23 -4 43 5 9 5 19 -1 27 -6 6 -8 22 -4 34 6 17 9 19 16 8 5
-8 9 -18 9 -24z m810 25 c-8 -5 -19 -10 -25 -10 -5 0 -3 5 5 10 8 5 20 10 25
10 6 0 3 -5 -5 -10z m-1119 -17 c13 -16 12 -17 -3 -4 -10 7 -18 15 -18 17 0 8
8 3 21 -13z m439 -25 c0 -13 -5 -9 -31 19 l-24 26 27 -19 c15 -10 28 -22 28
-26z m601 -9 c-13 -21 -29 -33 -46 -35 -17 -2 -23 1 -18 9 3 7 -3 3 -15 -7
-24 -21 -26 -19 -13 17 7 17 23 28 55 38 25 7 46 18 47 24 0 6 3 5 5 -1 3 -7
-4 -27 -15 -45z m-931 31 c8 -5 11 -10 5 -10 -5 0 -17 5 -25 10 -8 5 -10 10
-5 10 6 0 17 -5 25 -10z m1140 6 c0 -3 -4 -8 -10 -11 -5 -3 -10 -1 -10 4 0 6
5 11 10 11 6 0 10 -2 10 -4z m-1005 -16 c3 -5 2 -10 -4 -10 -5 0 -13 5 -16 10
-3 6 -2 10 4 10 5 0 13 -4 16 -10z m584 -49 l-21 -36 21 19 c12 11 21 25 21
32 0 7 6 14 13 17 19 7 36 -3 30 -19 -8 -20 -23 -17 -17 4 5 13 4 14 -4 3 -5
-7 -8 -21 -5 -30 2 -9 -7 -27 -21 -40 -24 -22 -37 -59 -18 -47 13 8 7 -24 -11
-64 -12 -26 -17 -30 -18 -15 -1 11 -1 23 0 27 10 67 11 111 2 98 -9 -12 -11
-11 -11 8 0 13 -4 20 -10 17 -6 -4 -7 -11 -4 -17 5 -7 2 -8 -5 -3 -9 5 -5 15
14 35 19 20 23 30 15 35 -11 7 -17 2 -39 -33 -5 -9 -17 -11 -35 -6 l-28 7 29
23 c15 13 33 22 39 19 6 -2 17 2 23 8 9 9 14 8 21 -3 8 -13 10 -12 10 4 0 15
3 16 15 6 14 -11 13 -17 -6 -49z m378 52 c-4 -3 0 -14 9 -24 15 -16 14 -20 -2
-48 -10 -16 -20 -28 -23 -27 -3 2 -33 0 -66 -5 -66 -9 -84 1 -61 36 11 17 11
22 -1 33 -24 23 -3 34 62 30 35 -1 67 1 71 5 4 4 10 7 12 7 3 0 2 -3 -1 -7z
m457 -14 c-3 -5 0 -9 5 -9 19 0 12 -26 -13 -47 -13 -11 -39 -22 -59 -25 -42
-5 -39 2 6 18 18 6 32 17 32 25 0 8 4 20 8 27 5 6 5 16 2 22 -3 6 1 7 9 4 9
-3 13 -10 10 -15z m-1464 1 c0 -5 -6 -10 -12 -11 -7 0 -2 -5 12 -10 20 -8 22
-12 10 -19 -18 -11 -29 -2 -35 28 -2 14 1 22 11 22 8 0 14 -4 14 -10z m1403
-5 c-6 -17 -25 -15 -31 3 -2 7 5 12 17 12 14 0 19 -5 14 -15z m132 -3 c-3 -3
-11 0 -18 7 -9 10 -8 11 6 5 10 -3 15 -9 12 -12z m-1652 -12 c3 6 4 5 3 -2 -4
-18 -28 -16 -34 2 -4 13 -3 13 10 2 11 -9 18 -9 21 -2z m3087 -51 c0 -8 7 -24
16 -35 13 -16 15 -16 10 -1 -16 47 -16 50 -1 24 9 -16 14 -31 11 -35 -4 -3 11
-24 31 -46 l38 -39 -47 37 c-35 28 -52 52 -68 92 -11 30 -20 58 -20 62 1 13
29 -43 30 -59z m599 47 c15 -18 11 -36 -11 -57 -10 -9 -14 -19 -11 -23 4 -4
-1 -4 -11 0 -12 5 -14 9 -6 14 9 5 9 9 1 14 -6 4 -15 4 -21 1 -15 -9 -12 -35
4 -35 8 0 17 -4 20 -9 3 -4 -8 -8 -24 -7 -34 1 -35 4 -18 41 10 22 17 26 40
21 18 -3 27 -2 23 4 -3 6 0 10 7 10 7 0 2 9 -12 20 -19 15 -21 20 -9 20 9 0
22 -6 28 -14z m-330 -10 c15 -8 39 -13 52 -10 20 4 21 3 5 -4 -18 -8 -18 -9
-2 -15 10 -4 22 -5 26 -2 5 3 20 0 34 -6 24 -11 24 -13 8 -25 -9 -7 -30 -10
-47 -8 -26 4 -27 3 -10 -6 18 -9 17 -10 -5 -4 -14 3 -44 6 -67 7 -22 1 -39 6
-36 10 2 4 26 5 51 3 33 -4 43 -3 32 4 -11 7 -6 8 16 4 20 -4 34 -2 39 7 6 9
3 11 -9 6 -10 -4 -35 2 -58 14 -22 11 -43 18 -46 15 -3 -3 1 -6 9 -6 12 0 11
-2 -1 -11 -12 -8 -10 -9 7 -4 12 3 24 1 27 -4 10 -16 -7 -20 -44 -11 -19 4
-29 8 -22 9 6 1 12 6 12 12 0 6 -8 8 -17 5 -15 -5 -14 -3 2 10 20 16 20 16 -3
11 -12 -3 -20 -1 -16 4 8 13 31 11 63 -5z m-2090 1 c-2 -1 -13 -9 -24 -17 -19
-14 -19 -14 -6 3 7 9 18 17 24 17 6 0 8 -1 6 -3z m95 -9 c-3 -4 -11 -5 -19 -1
-21 7 -19 12 4 10 11 0 18 -5 15 -9z m2301 2 c3 -5 -3 -10 -15 -10 -12 0 -18
5 -15 10 3 6 10 10 15 10 5 0 12 -4 15 -10z m-149 -13 c15 -14 -24 -17 -51 -3
l-29 15 37 -2 c20 -1 39 -6 43 -10z m-2912 -11 c-4 -10 1 -12 19 -9 19 4 26 0
30 -17 9 -35 -1 -52 -24 -39 -11 5 -17 13 -15 18 3 4 -4 14 -14 21 -14 10 -16
17 -8 27 14 17 19 17 12 -1z m366 10 c0 -2 -8 -10 -17 -17 -16 -13 -17 -12 -4
4 13 16 21 21 21 13z m240 0 c0 -2 -8 -10 -17 -17 -16 -13 -17 -12 -4 4 13 16
21 21 21 13z m225 -16 c-3 -5 -11 -10 -16 -10 -6 0 -7 5 -4 10 3 6 11 10 16
10 6 0 7 -4 4 -10z m-995 -57 c0 -2 -12 0 -27 3 -30 7 -55 24 -35 24 6 0 9 7
5 17 -4 10 6 5 25 -12 18 -16 32 -30 32 -32z m768 37 c-12 -19 -38 -35 -38
-24 0 5 41 43 48 44 1 0 -3 -9 -10 -20z m502 0 c0 -6 -12 -15 -27 -21 -16 -6
-39 -20 -53 -32 l-25 -22 25 28 c19 22 50 44 78 56 1 1 2 -4 2 -9z m-631 -26
c2 -2 -4 -4 -14 -4 -18 0 -18 -1 1 -15 10 -8 14 -15 8 -15 -6 0 -9 -13 -6 -30
3 -24 1 -30 -14 -30 -14 0 -16 2 -6 9 10 6 4 10 -18 15 -28 5 -31 8 -20 21 10
12 10 15 -3 15 -10 0 -13 6 -10 21 4 16 8 17 14 7 7 -10 9 -9 9 5 0 14 5 16
28 11 15 -4 29 -8 31 -10z m516 -4 c-22 -24 -9 -27 17 -3 32 29 19 8 -17 -27
-31 -30 -35 -32 -32 -13 3 20 34 63 45 63 3 0 -3 -9 -13 -20z m-699 -16 c-4
-12 -1 -14 14 -9 11 4 20 2 20 -3 0 -11 -30 -20 -48 -15 -6 3 -9 10 -5 16 4 7
0 8 -12 3 -15 -5 -16 -4 -5 9 17 20 44 20 36 -1z m351 10 c-3 -3 -12 -4 -19
-1 -8 3 -5 6 6 6 11 1 17 -2 13 -5z m-787 -46 c0 -14 -14 -9 -45 17 l-30 25
38 -17 c20 -9 37 -20 37 -25z m65 22 c3 -6 -1 -7 -9 -4 -18 7 -21 14 -7 14 6
0 13 -4 16 -10z m103 -3 c20 -23 -1 -37 -26 -17 -12 10 -22 21 -22 24 0 11 38
6 48 -7z m610 4 c10 -6 8 -10 -9 -14 -26 -7 -42 0 -34 14 8 11 26 11 43 0z
m2417 -1 c7 -12 -2 -12 -30 0 -19 8 -19 9 2 9 12 1 25 -3 28 -9z m-2521 -8 c2
-4 -1 -15 -8 -24 -11 -15 -13 -15 -24 2 -9 14 -8 20 1 23 18 8 25 8 31 -1z
m2411 -2 c15 -6 11 -8 -16 -7 -21 1 -35 5 -32 10 5 9 22 8 48 -3z m55 6 c0 -2
-7 -7 -16 -10 -8 -3 -12 -2 -9 4 6 10 25 14 25 6z m-3089 -23 c12 -14 12 -16
0 -8 -11 6 -13 4 -8 -9 4 -10 3 -15 -3 -11 -6 3 -10 1 -10 -6 0 -6 8 -9 20 -6
21 5 28 -7 9 -18 -5 -4 -19 1 -30 11 -15 13 -16 19 -7 26 10 6 10 8 1 8 -7 0
-10 7 -7 15 8 20 18 19 35 -2z m2767 -8 c-3 -3 -9 2 -12 12 -6 14 -5 15 5 6 7
-7 10 -15 7 -18z m361 16 c9 -6 4 -10 -18 -13 -31 -4 -43 6 -18 15 18 8 21 8
36 -2z m64 2 c-7 -2 -19 -2 -25 0 -7 3 -2 5 12 5 14 0 19 -2 13 -5z m-2780
-28 c-3 -10 3 -13 19 -11 13 1 28 5 34 8 5 4 18 0 29 -8 23 -17 11 -33 -27
-36 -19 -2 -33 -13 -48 -41 -14 -24 -27 -36 -36 -33 -8 3 -14 0 -14 -6 0 -6
-3 -8 -7 -5 -3 4 2 17 13 29 10 12 14 18 7 15 -6 -4 -14 -3 -18 2 -3 6 -16 1
-30 -11 -20 -17 -22 -24 -13 -36 17 -20 18 -39 2 -39 -8 0 -11 5 -6 12 4 6 0
3 -10 -7 -15 -17 -38 -24 -38 -13 0 10 26 51 49 77 19 21 20 26 7 24 -10 -1
-35 -22 -56 -45 l-40 -43 12 33 c6 19 19 46 30 61 10 14 18 32 18 40 0 10 2
10 8 1 6 -9 17 -4 41 21 23 24 38 32 56 28 15 -2 22 -9 18 -17z m-323 5 c0 -5
-2 -10 -4 -10 -3 0 -8 5 -11 10 -3 6 -1 10 4 10 6 0 11 -4 11 -10z m637 4 c-3
-3 -12 -4 -19 -1 -8 3 -5 6 6 6 11 1 17 -2 13 -5z m2338 -16 c7 -7 7 -9 -1 -5
-6 3 -29 7 -52 8 -23 2 -42 7 -42 12 0 12 82 -1 95 -15z m-3376 9 c-2 -1 -13
-9 -24 -17 -19 -14 -19 -14 -6 3 7 9 18 17 24 17 6 0 8 -1 6 -3z m911 -36 c6
-22 6 -29 -2 -25 -7 4 -8 2 -4 -4 4 -7 14 -12 23 -12 12 0 13 -3 4 -14 -7 -8
-8 -16 -2 -18 5 -1 -9 -23 -30 -47 -21 -24 -39 -38 -39 -32 0 7 14 26 31 43
23 24 27 33 17 39 -7 5 -9 9 -4 9 6 0 1 6 -9 14 -17 12 -18 17 -6 42 10 23 10
27 0 17 -21 -21 -30 -15 -12 7 20 23 21 22 33 -19z m500 29 c-8 -5 -19 -10
-25 -10 -5 0 -3 5 5 10 8 5 20 10 25 10 6 0 3 -5 -5 -10z m2034 -8 c3 -5 -8
-9 -24 -9 -16 0 -27 4 -24 9 3 4 14 8 24 8 10 0 21 -4 24 -8z m-3040 -17 c6
-17 -2 -44 -20 -62 -9 -10 -12 -5 -11 22 1 19 5 35 10 35 4 0 5 5 2 10 -3 6
-2 10 3 10 6 0 12 -7 16 -15z m2941 5 c25 -7 21 -8 -22 -7 -29 0 -50 4 -47 9
6 9 27 9 69 -2z m95 -20 c0 -5 -9 -10 -20 -10 -11 0 -20 -5 -20 -12 0 -6 -2
-9 -5 -6 -3 3 -3 13 1 22 7 17 44 23 44 6z m-2257 -17 c-6 -16 -5 -16 10 -4
14 11 13 6 -4 -27 -12 -23 -27 -39 -32 -35 -5 3 -3 10 4 15 10 7 5 8 -13 4
-16 -4 -28 -2 -28 4 0 5 4 10 9 10 5 0 19 11 32 25 29 30 30 30 22 8z m2137 7
c11 -7 7 -10 -18 -10 -20 0 -31 4 -27 10 8 13 26 13 45 0z m-2480 -10 c0 -5
-4 -10 -10 -10 -5 0 -10 -5 -10 -11 0 -5 5 -7 10 -4 7 4 9 -3 6 -19 -5 -30 -6
-29 30 -15 27 9 27 9 12 -8 -8 -10 -23 -33 -33 -52 -14 -28 -14 -35 -3 -42 18
-12 38 -11 38 1 0 6 -5 9 -11 8 -6 -2 -14 3 -16 10 -3 7 1 10 10 6 10 -3 18 2
22 15 3 11 21 31 38 43 24 17 29 18 17 4 -13 -16 -12 -18 10 -14 13 1 25 9 28
17 3 9 0 11 -9 6 -8 -5 2 9 21 31 19 22 37 39 39 37 3 -2 -9 -17 -25 -34 -26
-28 -27 -31 -7 -25 12 4 24 2 28 -4 9 -15 -15 -42 -32 -36 -7 3 -13 -1 -13
-11 0 -13 -3 -13 -15 -3 -13 11 -21 8 -45 -15 -17 -16 -30 -35 -30 -42 0 -7
-11 -13 -25 -13 -32 0 -126 36 -136 52 -9 14 17 48 36 48 14 0 39 27 40 44 2
31 35 65 35 36z m43 -23 c7 4 6 -1 -2 -10 -17 -22 -17 -22 -18 16 0 20 1 23 4
9 3 -14 9 -20 16 -15z m-387 -23 c-4 -14 -9 -24 -12 -21 -3 2 -2 17 2 31 3 15
9 25 11 22 3 -3 2 -17 -1 -32z m2824 20 c0 -2 -12 -4 -27 -4 -21 0 -24 3 -14
9 13 8 41 5 41 -5z m-2785 -4 c3 -5 2 -10 -4 -10 -5 0 -13 5 -16 10 -3 6 -2
10 4 10 5 0 13 -4 16 -10z m705 6 c0 -2 -12 -11 -27 -20 l-28 -17 24 20 c23
21 31 25 31 17z m1960 -16 c0 -5 -6 -7 -14 -4 -8 3 -17 1 -21 -5 -3 -7 3 -11
17 -12 22 0 22 -1 3 -8 -21 -9 -41 11 -30 29 8 13 45 13 45 0z m-3250 -10 c0
-6 -7 -13 -15 -16 -9 -4 -15 -19 -15 -35 0 -27 -9 -37 -23 -23 -7 8 13 67 27
76 16 11 26 10 26 -2z m-180 -14 c0 -8 -5 -27 -11 -43 -7 -19 -7 -29 0 -31 6
-2 11 -16 11 -30 -1 -26 -1 -26 -17 8 -9 19 -15 40 -13 45 1 6 3 16 3 23 0 6
4 12 8 12 5 0 6 7 3 15 -4 8 -1 15 5 15 6 0 11 -6 11 -14z m3536 7 c-10 -11
-37 -12 -30 -2 3 5 12 9 21 9 9 0 13 -3 9 -7z m-455 -54 l20 -29 -25 -27 c-14
-15 -26 -32 -26 -38 0 -5 -7 -1 -15 9 -16 21 -19 55 -9 105 7 35 18 31 55 -20z
m-3051 33 c0 -5 -7 -17 -16 -28 -8 -10 -14 -14 -11 -9 2 6 7 18 10 28 7 17 17
23 17 9z m1319 -3 c31 -11 32 -12 15 -37 -15 -23 -15 -25 0 -19 9 4 16 3 16
-2 0 -5 11 -12 25 -15 14 -4 23 -11 20 -16 -3 -6 -1 -10 4 -10 6 0 11 4 11 10
0 5 9 14 20 20 38 20 19 -5 -33 -44 -38 -29 -45 -32 -28 -13 25 27 17 38 -9
15 -8 -7 -6 -3 4 10 30 35 1 26 -43 -13 -48 -43 -99 -65 -126 -54 -11 4 -43 8
-71 8 -27 1 -58 7 -68 14 -14 10 -5 12 58 6 41 -3 81 -10 88 -16 9 -7 22 -5
43 8 17 11 26 19 21 19 -6 0 5 16 24 35 34 35 33 50 -2 18 -20 -18 -25 -4 -6
15 19 19 -3 14 -26 -5 -12 -10 -9 -4 7 13 29 32 27 43 -7 45 -18 1 -18 2 4 9
14 4 25 8 26 9 1 1 15 -4 33 -10z m325 -6 c11 -28 -63 -94 -115 -103 -58 -11
-62 -4 -8 10 29 8 56 25 80 51 20 21 33 39 29 39 -5 0 -19 -13 -32 -29 -13
-17 -40 -34 -62 -40 -50 -13 -59 -7 -13 8 18 6 49 27 67 46 38 40 45 42 54 18z
m1866 -2 c0 -5 -10 -11 -22 -14 -22 -6 -22 -6 -4 8 23 17 26 18 26 6z m35 -1
c3 -5 1 -10 -4 -10 -6 0 -11 5 -11 10 0 6 2 10 4 10 3 0 8 -4 11 -10z m-3490
-10 c3 -5 1 -10 -4 -10 -6 0 -11 5 -11 10 0 6 2 10 4 10 3 0 8 -4 11 -10z
m3335 0 c-20 -13 -33 -13 -25 0 3 6 14 10 23 10 15 0 15 -2 2 -10z m174 -22
c-3 -4 -12 -8 -20 -8 -8 0 -14 4 -14 8 0 4 9 8 19 8 11 0 17 -4 15 -8z m-1917
-10 c-2 -7 2 -25 9 -39 12 -24 11 -28 -19 -55 l-32 -29 29 33 c17 17 25 32 19
32 -5 0 -18 -9 -28 -20 -10 -11 -28 -20 -39 -21 -21 0 -21 -1 -1 -8 17 -7 16
-9 -11 -13 -40 -5 -62 1 -43 13 11 7 9 9 -6 10 -11 1 -24 1 -28 0 -5 -1 -7 4
-5 11 3 7 23 15 45 18 30 5 48 15 73 43 33 38 45 46 37 25z m1753 8 c0 -2 -7
-7 -16 -10 -8 -3 -12 -2 -9 4 6 10 25 14 25 6z m110 -6 c-8 -5 -19 -10 -25
-10 -5 0 -3 5 5 10 8 5 20 10 25 10 6 0 3 -5 -5 -10z m230 6 c0 -2 -7 -7 -16
-10 -8 -3 -12 -2 -9 4 6 10 25 14 25 6z m-236 -51 c-16 -13 -31 -21 -33 -19
-8 8 42 53 52 47 5 -3 -4 -16 -19 -28z m-3497 -21 c-12 -18 -25 -34 -29 -34
-11 0 -10 2 7 43 10 25 20 35 30 31 11 -5 10 -12 -8 -40z m986 21 c20 -8 37
-20 37 -26 0 -7 -7 -8 -17 -4 -10 4 -27 9 -38 11 l-20 4 20 -8 c16 -8 10 -10
-27 -13 -50 -4 -52 -2 -42 39 7 26 20 25 87 -3z m-392 -2 c13 -16 12 -17 -3
-4 -10 7 -18 15 -18 17 0 8 8 3 21 -13z m116 -5 c-3 -8 -6 -5 -6 6 -1 11 2 17
5 13 3 -3 4 -12 1 -19z m463 6 c0 -2 -9 -4 -20 -4 -11 0 -20 4 -20 9 0 5 9 7
20 4 11 -3 20 -7 20 -9z m-1227 -18 c3 -8 0 -19 -6 -24 -9 -8 -12 -4 -12 14 0
27 10 32 18 10z m126 0 c9 -10 9 -16 1 -21 -13 -8 -23 0 -26 20 -3 19 10 19
25 1z m379 6 c14 12 14 10 2 -12 -8 -14 -13 -28 -12 -32 1 -5 -5 -8 -13 -8 -9
0 -12 6 -8 17 4 10 2 14 -5 9 -6 -3 -13 -2 -17 4 -3 5 1 10 9 10 9 0 16 6 17
13 0 9 2 9 6 -1 4 -10 8 -10 21 0z m1002 4 c0 -2 -8 -10 -17 -17 -16 -13 -17
-12 -4 4 13 16 21 21 21 13z m1945 -6 c3 -5 -1 -10 -10 -10 -9 0 -13 5 -10 10
3 6 8 10 10 10 2 0 7 -4 10 -10z m295 6 c0 -3 -4 -8 -10 -11 -5 -3 -10 -1 -10
4 0 6 5 11 10 11 6 0 10 -2 10 -4z m-3316 -32 c7 -19 2 -18 -19 6 -16 17 -16
20 -3 15 9 -4 19 -13 22 -21z m501 7 c-3 -6 -16 -16 -28 -22 -21 -11 -21 -10
2 15 23 25 40 29 26 7z m280 9 c13 -5 -6 -7 -49 -4 -39 2 -72 7 -75 9 -8 9
103 4 124 -5z m-46 -53 c29 -4 58 -10 65 -15 6 -5 25 -13 41 -17 17 -4 25 -9
20 -11 -6 -3 -37 5 -70 16 -32 11 -68 20 -80 20 -13 0 -39 7 -59 15 -65 27
-158 2 -213 -58 -22 -23 -48 -49 -59 -57 -18 -14 -18 -14 -1 6 9 11 14 24 10
27 -3 4 0 7 7 7 8 0 35 20 60 44 37 37 55 46 100 53 44 8 62 6 90 -7 19 -10
59 -20 89 -23z m351 40 c0 -2 -10 -12 -22 -23 l-23 -19 19 23 c18 21 26 27 26
19z m-150 -14 c0 -9 -65 -53 -77 -53 -9 0 60 59 70 60 4 0 7 -3 7 -7z m356
-15 c-1 -18 -8 -23 -32 -24 -16 -1 -41 -5 -55 -8 -18 -6 -20 -5 -9 3 8 6 22
11 31 11 9 0 24 9 34 20 23 26 33 25 31 -2z m1729 10 c-11 -6 -36 -25 -55 -42
-32 -28 -32 -28 5 12 21 23 46 42 55 42 11 -1 10 -4 -5 -12z m-3294 -21 c-10
-9 -11 -8 -5 6 3 10 9 15 12 12 3 -3 0 -11 -7 -18z m-151 3 c-12 -8 -12 -12
-2 -18 9 -6 7 -13 -10 -28 -13 -10 -17 -12 -11 -3 7 8 10 25 6 37 -4 17 -1 22
13 22 16 0 17 -2 4 -10z m1390 -11 c0 -5 -4 -8 -9 -5 -5 4 -23 -6 -41 -20 -39
-33 -52 -24 -14 10 30 26 64 34 64 15z m2060 -7 c-8 -3 -24 -12 -35 -21 -14
-11 -13 -8 4 11 13 15 29 24 34 21 7 -4 6 -8 -3 -11z m-3500 -12 c0 -5 -5 -10
-11 -10 -5 0 -7 5 -4 10 3 6 8 10 11 10 2 0 4 -4 4 -10z m1450 -7 c-8 -3 -28
-15 -45 -26 l-30 -21 24 27 c14 15 34 27 45 26 15 0 17 -2 6 -6z m280 3 c0 -2
-9 -6 -20 -9 -11 -3 -18 -1 -14 4 5 9 34 13 34 5z m-840 -10 c0 -3 -4 -8 -10
-11 -5 -3 -10 -1 -10 4 0 6 5 11 10 11 6 0 10 -2 10 -4z m2620 -5 c0 -5 -9
-11 -20 -14 -22 -6 -28 8 -7 16 19 8 27 8 27 -2z m-974 -29 c-9 -9 -37 8 -31
18 5 8 11 7 21 -1 8 -6 12 -14 10 -17z m-1781 -42 c2 -28 11 -62 20 -76 17
-26 15 -41 -3 -30 -13 8 -32 87 -32 132 0 54 12 34 15 -26z m735 56 c0 -2 -11
-6 -25 -8 -13 -3 -22 -1 -19 3 5 9 44 13 44 5z m2304 -11 c-4 -8 -11 -15 -16
-15 -6 0 -5 6 2 15 7 8 14 15 16 15 2 0 1 -7 -2 -15z m-3229 -25 c1 -12 -2
-19 -7 -18 -5 2 -9 7 -9 11 1 4 1 15 1 24 0 23 13 7 15 -17z m-554 -3 c-10 -9
-11 -8 -5 6 3 10 9 15 12 12 3 -3 0 -11 -7 -18z m1359 13 c11 -8 7 -9 -15 -4
-37 8 -45 14 -19 14 10 0 26 -5 34 -10z m196 2 c8 -5 7 -11 -4 -22 -14 -13
-15 -12 -9 2 3 9 1 19 -6 22 -7 2 -7 5 -2 5 6 0 15 -3 21 -7z m-1318 -21 c12
-11 22 -22 22 -27 0 -4 8 -13 18 -21 10 -9 11 -12 2 -7 -8 4 -26 16 -39 28
l-24 21 19 -30 18 -30 -22 19 c-19 16 -22 17 -22 3 0 -9 4 -18 10 -22 5 -3 7
-12 3 -20 -3 -8 0 -15 6 -15 6 0 11 -5 11 -11 0 -8 -4 -8 -15 1 -8 6 -18 9
-24 6 -14 -9 -19 16 -9 44 7 19 5 27 -8 37 -11 8 -13 13 -5 13 7 0 9 5 5 13
-5 8 -2 7 9 -2 10 -8 21 -11 24 -7 4 4 1 11 -7 16 -8 6 -10 10 -5 10 6 -1 20
-9 33 -19z m1266 11 c3 -5 -8 -9 -25 -9 -19 0 -25 3 -17 9 17 10 35 10 42 0z
m106 -7 c0 -8 5 -15 10 -15 6 0 10 -4 10 -9 0 -6 -14 -5 -32 2 -24 8 -28 12
-15 15 9 2 15 8 12 13 -4 5 -1 9 4 9 6 0 11 -7 11 -15z m1806 -10 c-11 -8 -25
-15 -30 -15 -6 1 0 7 14 15 32 19 40 18 16 0z m338 -36 c-24 -27 -30 -15 -9
18 12 17 20 23 23 15 2 -7 -4 -22 -14 -33z m-3646 13 c12 4 24 -2 32 -16 10
-17 10 -19 -1 -8 -18 17 -49 15 -49 -2 0 -8 5 -18 10 -21 6 -3 10 -15 10 -25
0 -17 -5 -19 -32 -14 -18 4 -38 13 -44 20 -6 8 -15 10 -19 6 -5 -4 -4 0 1 8 4
8 7 26 5 39 -2 20 1 23 18 18 12 -3 21 0 21 5 0 6 6 5 15 -2 8 -7 23 -10 33
-8z m2692 2 c0 -2 -7 -4 -15 -4 -8 0 -15 4 -15 10 0 5 7 7 15 4 8 -4 15 -8 15
-10z m-1277 -1 c-7 -2 -21 -2 -30 0 -10 3 -4 5 12 5 17 0 24 -2 18 -5z m222 1
c14 -6 14 -8 -3 -18 -11 -6 -30 -17 -43 -25 l-23 -14 25 31 c28 36 23 34 44
26z m1620 -4 c-3 -5 -12 -10 -18 -10 -7 0 -6 4 3 10 19 12 23 12 15 0z m-1729
-15 c18 -14 17 -15 -11 -9 -16 4 -39 11 -50 15 -17 6 -15 8 11 8 16 1 39 -6
50 -14z m-776 -8 c0 -2 -10 -12 -22 -23 l-23 -19 19 23 c18 21 26 27 26 19z
m685 -7 c4 -6 -5 -10 -20 -10 -15 0 -24 4 -20 10 3 6 12 10 20 10 8 0 17 -4
20 -10z m-1145 -40 c-7 -4 -9 -13 -5 -20 5 -9 1 -10 -15 -5 -15 5 -20 4 -16
-4 13 -20 0 -12 -25 16 l-24 28 24 -20 24 -20 -7 23 c-6 17 -3 24 16 31 26 10
50 -15 28 -29z m1235 25 c17 -7 23 -14 15 -14 -8 0 -28 6 -45 14 -16 7 -23 14
-15 14 8 0 29 -6 45 -14z m160 5 c4 -7 -2 -9 -17 -5 -16 4 -33 -1 -53 -16
l-30 -23 24 27 c25 27 64 36 76 17z m-1491 -21 c8 -12 12 -28 9 -36 -4 -9 0
-14 8 -12 42 7 65 -43 38 -81 -8 -12 -9 -11 -4 6 3 13 -1 26 -10 34 -8 7 -13
16 -10 20 3 4 -1 8 -8 7 -47 -1 -58 3 -52 23 4 12 2 20 -5 20 -6 0 -8 5 -5 11
4 6 13 8 21 5 8 -3 14 -3 14 0 0 2 -10 9 -22 14 -17 6 -18 9 -6 9 9 1 24 -9
32 -20z m150 13 c3 -5 -1 -9 -9 -9 -8 0 -12 4 -9 9 3 4 7 8 9 8 2 0 6 -4 9 -8z
m2733 -8 c-3 -3 -12 -4 -19 -1 -8 3 -5 6 6 6 11 1 17 -2 13 -5z m-1561 -17 c2
-2 -14 -4 -35 -5 -22 -1 -42 2 -45 7 -5 8 72 7 80 -2z m200 -2 c21 -16 12 -20
-15 -6 -12 7 -26 5 -45 -5 -38 -19 -43 -18 -15 6 29 23 49 25 75 5z m1437 -2
c-7 -2 -21 -2 -30 0 -10 3 -4 5 12 5 17 0 24 -2 18 -5z m-3167 -34 c19 -22 19
-22 -3 -10 -24 12 -39 31 -25 31 5 0 17 -10 28 -21z m148 -8 c-2 -3 -12 3 -22
13 -16 17 -16 18 5 5 12 -7 20 -15 17 -18z m316 20 c0 -5 -6 -11 -13 -14 -8
-3 -14 1 -14 9 0 8 6 14 14 14 7 0 13 -4 13 -9z m1275 -3 c14 -6 25 -15 25
-20 0 -5 -9 -4 -19 2 -29 15 -62 12 -85 -7 -15 -13 -14 -10 3 10 27 30 38 32
76 15z m1364 8 c-10 -9 -79 -14 -74 -5 4 5 22 9 42 9 20 0 34 -2 32 -4z
m-1556 -13 c3 -5 -5 -8 -18 -8 -13 0 -21 3 -18 8 2 4 10 7 18 7 8 0 16 -3 18
-7z m-1468 -21 c-3 -3 -11 0 -18 7 -9 10 -8 11 6 5 10 -3 15 -9 12 -12z m1541
-8 c17 -14 17 -15 1 -10 -10 3 -23 6 -28 6 -5 0 -9 5 -9 10 0 14 13 12 36 -6z
m-1151 -25 c25 -17 44 -33 41 -36 -4 -5 -96 56 -96 64 0 7 11 1 55 -28z m1291
21 c36 -14 27 -20 -16 -11 -25 5 -42 3 -60 -8 l-25 -15 19 22 c21 24 41 27 82
12z m1304 -5 c-24 -8 -46 -12 -49 -10 -7 7 42 24 69 24 17 0 11 -5 -20 -14z
m-2950 -10 c18 -22 7 -28 -24 -14 -19 9 -23 15 -14 21 18 11 24 10 38 -7z
m1465 5 c4 -7 -3 -8 -22 -4 -38 9 -42 14 -10 14 14 0 29 -5 32 -10z m685 0
c-65 -14 -135 -21 -125 -11 15 13 44 19 105 19 49 0 51 -1 20 -8z m-613 -33
c4 -7 0 -8 -11 -4 -10 4 -22 7 -27 7 -5 0 -9 4 -9 9 0 12 38 2 47 -12z"/>
<path d="M2204 2658 l-19 -23 23 19 c21 18 27 26 19 26 -2 0 -12 -10 -23 -22z"/>
<path d="M3240 2024 c0 -13 66 -64 82 -64 7 0 4 6 -7 12 -11 6 -32 22 -47 36
-16 14 -28 22 -28 16z"/>
<path d="M3350 1952 c8 -5 31 -12 50 -15 22 -4 29 -3 20 2 -21 12 -90 25 -70
13z"/>
<path d="M1469 2243 c-13 -15 -12 -15 9 -4 23 12 28 21 13 21 -5 0 -15 -7 -22
-17z"/>
<path d="M1890 1838 c0 -7 5 -20 10 -28 8 -12 10 -11 10 7 0 12 -4 25 -10 28
-5 3 -10 0 -10 -7z"/>
<path d="M1972 1805 c-17 -37 -15 -156 3 -179 13 -17 14 -16 10 18 -3 20 -7
52 -9 71 -3 19 0 51 5 71 12 43 7 54 -9 19z"/>
<path d="M1690 1636 c0 -2 7 -7 16 -10 8 -3 12 -2 9 4 -6 10 -25 14 -25 6z"/>
<path d="M1772 1606 c7 -7 19 -11 25 -9 18 7 5 23 -18 23 -16 0 -18 -2 -7 -14z"/>
<path d="M1950 1555 c0 -5 5 -17 10 -25 5 -8 10 -10 10 -5 0 6 -5 17 -10 25
-5 8 -10 11 -10 5z"/>
<path d="M1728 1543 c7 -3 16 -2 19 1 4 3 -2 6 -13 5 -11 0 -14 -3 -6 -6z"/>
<path d="M2910 1530 c0 -5 5 -10 11 -10 5 0 7 5 4 10 -3 6 -8 10 -11 10 -2 0
-4 -4 -4 -10z"/>
<path d="M1865 1490 c3 -5 8 -10 11 -10 2 0 4 5 4 10 0 6 -5 10 -11 10 -5 0
-7 -4 -4 -10z"/>
<path d="M2500 1456 c0 -2 8 -10 18 -17 15 -13 16 -12 3 4 -13 16 -21 21 -21
13z"/>
<path d="M2486 1431 c-3 -5 1 -11 9 -14 9 -4 12 -1 8 9 -6 16 -10 17 -17 5z"/>
<path d="M2643 1381 c-21 -6 -21 -6 5 -25 14 -11 22 -14 18 -8 -15 24 23 11
43 -14 14 -18 21 -21 21 -12 0 24 -61 65 -87 59z"/>
<path d="M2885 1361 c-10 -17 9 -20 30 -5 18 14 18 14 -2 14 -12 0 -24 -4 -28
-9z"/>
<path d="M1990 1340 c24 -24 26 -50 4 -50 -13 0 -13 -4 3 -30 33 -57 48 -33
26 44 -12 42 -20 56 -34 56 -18 0 -18 -1 1 -20z"/>
<path d="M1924 1334 c1 -11 -11 -20 -37 -28 -53 -15 -51 -31 3 -33 33 -1 39 0
20 6 -24 7 -24 7 -3 13 12 3 26 2 32 -3 8 -6 8 -5 1 3 -16 19 -12 30 8 19 14
-7 18 -6 19 10 1 10 -2 21 -8 24 -5 4 -6 -2 -2 -12 6 -17 6 -17 -14 0 -19 17
-21 17 -19 1z"/>
<path d="M2471 1114 c6 -8 16 -14 21 -14 5 0 28 -15 51 -33 23 -19 49 -37 57
-41 8 -5 0 4 -17 19 -41 33 -43 50 -5 41 15 -3 63 -14 107 -24 90 -20 129 -20
194 -3 60 17 46 23 -24 10 -57 -10 -58 -10 -89 20 -18 17 -35 31 -39 31 -4 0
7 -14 25 -31 32 -29 32 -30 8 -25 -14 2 -47 8 -75 12 -27 3 -63 13 -78 21 -15
7 -31 12 -36 9 -4 -3 -31 1 -60 9 -45 12 -51 12 -40 -1z"/>
<path d="M2860 1120 c-13 -8 -12 -10 3 -10 9 0 17 5 17 10 0 12 -1 12 -20 0z"/>
<path d="M2931 1107 c30 -26 60 -64 42 -53 -9 5 -11 2 -7 -9 6 -14 12 -11 38
14 34 33 64 39 85 19 10 -11 11 -9 5 5 -5 14 -17 17 -53 16 -51 -2 -66 1 -98
19 -34 19 -40 14 -12 -11z"/>
<path d="M2070 1055 c-11 -13 -10 -14 4 -9 9 3 16 10 16 15 0 13 -6 11 -20 -6z"/>
<path d="M2010 986 c0 -2 7 -6 15 -10 8 -3 15 -1 15 4 0 6 -7 10 -15 10 -8 0
-15 -2 -15 -4z"/>
<path d="M2181 945 c0 -17 44 -94 53 -94 5 0 14 -10 21 -23 6 -13 16 -22 22
-21 12 2 41 -27 42 -41 0 -6 8 -11 16 -12 16 -2 69 -40 98 -68 8 -8 17 -13 19
-10 3 2 13 -6 24 -18 10 -13 12 -17 4 -10 -8 6 -19 12 -24 12 -13 -1 24 -24
39 -25 6 -1 9 -6 8 -13 -2 -6 4 -9 11 -6 8 3 38 -10 68 -28 83 -53 85 -54 71
-37 -7 8 -38 33 -70 54 -32 22 -85 63 -119 92 -34 29 -67 53 -75 53 -18 1
-132 107 -148 138 -7 12 -16 20 -22 17 -5 -4 -9 -2 -9 2 0 5 -7 18 -15 29 -8
10 -14 15 -14 9z"/>
<path d="M2630 936 c0 -2 7 -7 16 -10 8 -3 12 -2 9 4 -6 10 -25 14 -25 6z"/>
<path d="M2857 923 c-4 -3 -7 -11 -7 -17 0 -6 5 -5 12 2 6 6 9 14 7 17 -3 3
-9 2 -12 -2z"/>
<path d="M3189 793 c-13 -16 -12 -17 4 -4 16 13 21 21 13 21 -2 0 -10 -8 -17
-17z"/>
<path d="M3147 769 c-8 -28 -3 -34 11 -16 6 7 7 19 3 26 -6 9 -10 6 -14 -10z"/>
<path d="M3090 726 c-7 -14 -19 -26 -26 -26 -7 0 -18 -9 -24 -19 -12 -24 -13
-31 -2 -31 13 0 74 79 70 91 -2 6 -10 -1 -18 -15z"/>
<path d="M3160 706 c0 -9 5 -16 10 -16 6 0 10 4 10 9 0 6 -4 13 -10 16 -5 3
-10 -1 -10 -9z"/>
<path d="M2980 644 c-14 -8 -31 -12 -37 -9 -15 5 -16 -4 -4 -24 8 -12 12 -13
25 -1 9 7 19 10 23 7 11 -11 42 13 37 28 -7 18 -11 18 -44 -1z"/>
<path d="M2875 609 c-5 -7 28 -21 55 -23 8 -1 13 -6 12 -11 -2 -6 -8 -9 -14
-7 -5 1 -12 -7 -15 -18 -3 -11 -10 -17 -16 -13 -6 3 -7 1 -3 -6 9 -14 26 -5
26 15 0 8 4 13 8 10 10 -6 22 2 47 34 l20 25 -21 -17 c-19 -16 -21 -16 -37 -1
-17 17 -55 25 -62 12z"/>
<path d="M2846 583 c17 -15 30 -21 32 -14 2 6 9 8 15 5 9 -5 9 -4 1 5 -6 6
-25 16 -43 21 l-33 9 28 -26z"/>
<path d="M2757 589 c7 -7 15 -10 18 -7 3 3 -2 9 -12 12 -14 6 -15 5 -6 -5z"/>
<path d="M2989 583 c-13 -16 -12 -17 4 -4 16 13 21 21 13 21 -2 0 -10 -8 -17
-17z"/>
<path d="M2682 567 c7 -7 27 -20 43 -30 l30 -18 -33 30 c-18 17 -37 31 -43 31
-6 0 -5 -5 3 -13z"/>
<path d="M2780 566 c0 -2 12 -12 28 -21 l27 -18 -19 21 c-17 20 -36 29 -36 18z"/>
<path d="M2850 543 c0 -15 19 -37 26 -31 3 4 -1 14 -10 23 -9 9 -16 13 -16 8z"/>
<path d="M2425 480 c10 -11 20 -20 23 -20 3 0 -3 9 -13 20 -10 11 -20 20 -23
20 -3 0 3 -9 13 -20z"/>
<path d="M1333 1214 c4 -4 -1 -16 -10 -27 -17 -19 -17 -20 4 -8 31 16 36 28
16 35 -10 4 -14 4 -10 0z"/>
<path d="M1249 1163 c-13 -16 -12 -17 4 -4 9 7 17 15 17 17 0 8 -8 3 -21 -13z"/>
<path d="M1615 1100 c3 -5 11 -10 16 -10 6 0 7 5 4 10 -3 6 -11 10 -16 10 -6
0 -7 -4 -4 -10z"/>
<path d="M1680 929 c0 -5 5 -7 10 -4 6 3 10 8 10 11 0 2 -4 4 -10 4 -5 0 -10
-5 -10 -11z"/>
<path d="M3630 901 c13 -9 13 -11 0 -11 -13 0 -13 -1 0 -10 18 -12 68 -12 95
0 13 5 1 7 -35 5 -45 -3 -49 -3 -20 4 31 7 32 9 8 10 -14 0 -35 4 -45 7 -15 5
-15 4 -3 -5z"/>
<path d="M510 660 c0 -5 5 -10 11 -10 5 0 7 5 4 10 -3 6 -8 10 -11 10 -2 0 -4
-4 -4 -10z"/>
<path d="M600 600 c8 -5 20 -10 25 -10 6 0 3 5 -5 10 -8 5 -19 10 -25 10 -5 0
-3 -5 5 -10z"/>
<path d="M649 583 c5 -11 20 -23 31 -26 28 -7 25 -2 -11 24 -30 21 -31 21 -20
2z"/>
<path d="M441 554 c-12 -27 -11 -28 4 -12 10 9 16 21 13 28 -2 7 -10 -1 -17
-16z"/>
<path d="M670 538 c0 -9 5 -20 11 -23 17 -11 20 0 4 21 -13 17 -14 17 -15 2z"/>
<path d="M446 502 c-2 -4 -1 -14 3 -21 6 -10 10 -9 14 3 6 16 -8 32 -17 18z"/>
<path d="M440 447 c0 -4 9 -16 20 -27 11 -11 20 -16 20 -12 0 5 -9 17 -20 27
-11 10 -20 15 -20 12z"/>
<path d="M462 355 c18 -23 4 -45 -22 -37 -13 5 -13 3 0 -14 18 -23 32 -34 45
-34 5 0 4 5 -3 12 -8 8 -8 17 -1 31 9 16 7 24 -12 41 -20 18 -21 18 -7 1z"/>
<path d="M428 343 c7 -3 16 -2 19 1 4 3 -2 6 -13 5 -11 0 -14 -3 -6 -6z"/>
<path d="M559 309 c-12 -8 -11 -11 1 -19 20 -13 25 -12 39 4 9 11 7 15 -8 19
-10 2 -25 1 -32 -4z"/>
<path d="M508 264 c0 -5 -2 -21 -3 -36 -2 -23 1 -26 16 -17 28 15 30 25 9 44
-11 10 -21 14 -22 9z"/>
<path d="M895 839 c-4 -6 -5 -12 -2 -15 2 -3 7 2 10 11 7 17 1 20 -8 4z"/>
<path d="M989 803 c-13 -16 -12 -17 4 -4 9 7 17 15 17 17 0 8 -8 3 -21 -13z"/>
<path d="M1795 850 c-3 -5 1 -10 10 -10 9 0 13 5 10 10 -3 6 -8 10 -10 10 -2
0 -7 -4 -10 -10z"/>
<path d="M3690 780 c-9 -6 -10 -10 -3 -10 6 0 15 5 18 10 8 12 4 12 -15 0z"/>
<path d="M1093 667 c-20 -22 -21 -47 -1 -47 6 0 8 7 4 15 -3 8 2 22 11 30 8 9
13 18 11 20 -3 3 -14 -5 -25 -18z"/>
<path d="M1251 499 c-6 -18 -9 -34 -7 -36 2 -2 9 10 15 28 6 18 9 34 7 36 -2
2 -9 -10 -15 -28z"/>
<path d="M1200 501 c-12 -24 -13 -31 -1 -31 5 0 11 11 13 25 6 30 2 32 -12 6z"/>
<path d="M1226 505 c-3 -9 -6 -24 -5 -33 0 -9 5 -4 10 12 9 32 6 48 -5 21z"/>
<path d="M1330 490 c-12 -16 -19 -30 -16 -30 2 0 14 14 26 30 12 17 19 30 16
30 -2 0 -14 -13 -26 -30z"/>
<path d="M1165 500 c-3 -5 -1 -10 4 -10 6 0 11 5 11 10 0 6 -2 10 -4 10 -3 0
-8 -4 -11 -10z"/>
<path d="M1524 500 c0 -23 9 -26 25 -6 9 11 8 15 -5 20 -8 3 -17 6 -18 6 -1 0
-2 -9 -2 -20z"/>
<path d="M1528 430 c-18 -16 -27 -30 -21 -30 7 0 27 13 45 30 18 16 27 30 21
30 -7 0 -27 -13 -45 -30z"/>
<path d="M1849 443 c-13 -16 -12 -17 4 -4 16 13 21 21 13 21 -2 0 -10 -8 -17
-17z"/>
<path d="M1783 393 c9 -2 23 -2 30 0 6 3 -1 5 -18 5 -16 0 -22 -2 -12 -5z"/>
<path d="M1150 420 c-8 -5 -10 -10 -5 -10 6 0 17 5 25 10 8 5 11 10 5 10 -5 0
-17 -5 -25 -10z"/>
<path d="M1885 360 c-3 -5 -1 -10 4 -10 6 0 11 5 11 10 0 6 -2 10 -4 10 -3 0
-8 -4 -11 -10z"/>
<path d="M3785 3590 c3 -11 3 -20 -2 -20 -4 0 -9 -16 -10 -34 l-3 -35 33 13
c58 24 62 26 40 22 -16 -3 -23 1 -23 11 0 9 -6 13 -15 9 -8 -3 -15 -1 -15 3 0
5 5 11 12 13 14 5 3 38 -12 38 -7 0 -9 -8 -5 -20z"/>
<path d="M2450 3440 c0 -5 10 -15 23 -21 22 -12 22 -12 3 10 -21 23 -26 26
-26 11z"/>
<path d="M2885 3420 c-3 -11 -3 -24 0 -30 3 -5 0 -10 -8 -10 -8 0 -18 -8 -22
-17 -5 -14 -3 -15 5 -6 9 8 20 8 46 -3 42 -18 57 -18 24 1 -23 12 -33 43 -19
55 4 3 1 11 -6 17 -11 10 -15 9 -20 -7z"/>
<path d="M2807 3419 c7 -7 15 -10 18 -7 3 3 -2 9 -12 12 -14 6 -15 5 -6 -5z"/>
<path d="M2445 3399 c-4 -6 -2 -16 5 -22 10 -9 11 -9 6 0 -3 6 -1 13 6 15 9 3
9 6 1 11 -7 4 -15 2 -18 -4z"/>
<path d="M2601 3409 c-1 -4 6 -23 14 -42 21 -51 18 -59 -6 -17 -11 19 -18 27
-15 18 3 -10 -2 -22 -12 -28 -15 -10 -15 -11 0 -6 19 6 46 -20 28 -26 -7 -2
-1 -12 12 -23 18 -16 20 -17 9 -2 -10 12 -11 21 -4 28 17 17 72 -36 67 -64 -4
-19 -3 -19 6 3 10 22 8 28 -25 56 -20 17 -45 48 -55 70 -10 21 -19 36 -19 33z"/>
<path d="M2840 3395 c0 -8 2 -15 4 -15 2 0 6 7 10 15 3 8 1 15 -4 15 -6 0 -10
-7 -10 -15z"/>
<path d="M3415 3390 c21 -24 26 -25 19 -6 -3 8 -13 17 -22 21 -13 5 -13 2 3
-15z"/>
<path d="M2510 3370 c0 -16 4 -30 9 -30 4 0 6 11 3 25 -4 21 -1 24 13 18 13
-4 16 -3 11 5 -14 24 -36 13 -36 -18z"/>
<path d="M2808 3390 c19 -22 14 -32 -10 -20 -22 11 -22 10 -4 -4 37 -29 59
-10 23 20 -12 10 -16 12 -9 4z"/>
<path d="M3065 3391 c-9 -16 9 -20 23 -5 10 12 10 14 -2 14 -8 0 -17 -4 -21
-9z"/>
<path d="M3265 3390 c3 -5 8 -10 11 -10 2 0 4 5 4 10 0 6 -5 10 -11 10 -5 0
-7 -4 -4 -10z"/>
<path d="M3484 3393 c10 -11 37 -12 30 -2 -3 5 -12 9 -21 9 -9 0 -13 -3 -9 -7z"/>
<path d="M2360 3376 c0 -2 7 -9 15 -16 9 -7 15 -8 15 -2 0 5 -7 12 -15 16 -8
3 -15 4 -15 2z"/>
<path d="M3143 3360 c14 -11 29 -20 33 -20 4 0 -1 9 -11 20 -10 11 -25 20 -33
20 -9 0 -6 -7 11 -20z"/>
<path d="M2410 3365 c0 -13 44 -54 53 -48 6 3 8 2 5 -3 -3 -5 -1 -18 3 -29 9
-18 9 -18 5 3 -2 12 0 22 5 22 18 0 -4 30 -34 45 -33 16 -37 18 -37 10z"/>
<path d="M2537 3351 c3 -11 12 -26 21 -33 14 -12 14 -10 2 12 -7 14 -12 27
-11 30 1 2 -2 6 -7 8 -6 2 -8 -6 -5 -17z"/>
<path d="M2987 3350 c-3 -11 -1 -23 4 -26 5 -3 9 6 9 20 0 31 -6 34 -13 6z"/>
<path d="M3041 3362 c-1 -7 -5 -10 -11 -7 -5 3 -10 1 -10 -4 0 -6 5 -11 10
-11 6 0 20 -11 32 -25 24 -28 74 -36 64 -9 -4 11 1 10 20 -5 29 -23 44 -27 44
-11 0 5 -18 19 -40 30 -36 19 -40 19 -49 3 -8 -15 -11 -15 -26 -3 -10 8 -21
23 -25 35 -5 11 -9 14 -9 7z"/>
<path d="M2321 3328 c13 -21 27 -38 30 -38 13 0 19 34 9 44 -8 8 -9 5 -4 -9 6
-16 0 -14 -26 10 l-33 30 24 -37z"/>
<path d="M2416 3326 c3 -9 1 -16 -6 -16 -7 0 -9 -8 -5 -20 6 -20 -9 -28 -20
-10 -13 22 -23 8 -18 -25 4 -25 2 -36 -9 -40 -24 -9 8 -74 33 -68 22 6 34 33
14 33 -8 0 -15 5 -15 10 0 6 8 10 18 8 11 -2 17 3 17 15 0 10 6 21 13 26 17
10 6 75 -14 92 -12 10 -13 9 -8 -5z"/>
<path d="M2767 3329 c7 -7 15 -10 18 -7 3 3 -2 9 -12 12 -14 6 -15 5 -6 -5z"/>
<path d="M3195 3330 c-6 -9 11 -50 21 -50 2 0 0 10 -7 21 -9 17 -8 23 2 30 10
6 10 9 2 9 -6 0 -15 -4 -18 -10z"/>
<path d="M2516 3314 c-8 -21 -8 -24 5 -24 5 0 7 5 3 12 -5 8 -2 9 11 4 15 -5
16 -4 5 9 -15 19 -16 19 -24 -1z"/>
<path d="M2800 3310 c0 -17 -3 -19 -19 -10 -33 17 -47 11 -21 -10 14 -11 28
-20 31 -20 12 0 28 49 19 55 -6 4 -10 -3 -10 -15z"/>
<path d="M3290 3298 c0 -4 6 -8 14 -8 8 0 17 4 20 8 2 4 -4 8 -15 8 -10 0 -19
-4 -19 -8z"/>
<path d="M3245 3280 c3 -5 11 -10 16 -10 6 0 7 5 4 10 -3 6 -11 10 -16 10 -6
0 -7 -4 -4 -10z"/>
<path d="M1924 3265 c11 -8 24 -15 30 -15 5 0 1 7 -10 15 -10 8 -23 14 -29 14
-5 0 -1 -6 9 -14z"/>
<path d="M2513 3237 c4 -10 7 -22 7 -27 0 -4 7 -10 15 -14 13 -4 12 -1 -2 22
-23 36 -28 41 -20 19z"/>
<path d="M1607 3208 c15 -17 78 -54 70 -40 -4 5 -24 20 -44 32 -20 12 -32 16
-26 8z"/>
<path d="M1950 3205 c0 -2 10 -10 23 -16 20 -11 21 -11 8 4 -13 16 -31 23 -31
12z"/>
<path d="M3251 3206 c2 -2 15 -9 29 -15 24 -11 24 -11 6 3 -16 13 -49 24 -35
12z"/>
<path d="M1730 3196 c0 -2 8 -10 18 -17 15 -13 16 -12 3 4 -13 16 -21 21 -21
13z"/>
<path d="M1896 3172 c25 -21 31 -34 29 -59 -2 -17 -6 -37 -11 -45 -6 -11 -5
-11 8 0 13 11 16 9 16 -13 0 -30 -9 -32 -33 -5 -10 11 -21 18 -23 15 -3 -3 5
-17 19 -32 l24 -26 -37 27 c-21 16 -36 32 -33 36 3 4 -3 14 -13 21 -16 13 -16
13 -2 -5 14 -18 13 -19 -10 -13 -20 5 -16 -1 20 -33 25 -22 40 -39 34 -40 -6
0 -17 7 -24 15 -7 8 -17 15 -23 15 -15 0 39 -40 55 -40 19 -1 48 -25 48 -40 0
-9 3 -10 13 -1 8 6 16 9 18 6 3 -2 5 5 5 15 0 15 -5 19 -21 14 -15 -4 -16 -3
-6 4 8 6 12 19 8 31 -3 15 2 27 19 40 13 10 24 22 24 26 0 4 -6 2 -14 -4 -21
-18 -41 -4 -42 30 -1 30 -47 89 -68 89 -6 0 3 -13 20 -28z"/>
<path d="M1835 3171 c-3 -5 -1 -12 5 -16 5 -3 10 1 10 9 0 18 -6 21 -15 7z"/>
<path d="M2720 3176 c0 -2 7 -9 15 -16 9 -7 15 -8 15 -2 0 5 -7 12 -15 16 -8
3 -15 4 -15 2z"/>
<path d="M1805 3150 c10 -11 23 -20 28 -20 6 0 2 9 -8 20 -10 11 -23 20 -28
20 -6 0 -2 -9 8 -20z"/>
<path d="M2294 3155 c22 -17 36 -19 36 -6 0 10 -24 21 -43 21 -7 0 -3 -7 7
-15z"/>
<path d="M475 3150 c3 -5 11 -10 16 -10 6 0 7 5 4 10 -3 6 -11 10 -16 10 -6 0
-7 -4 -4 -10z"/>
<path d="M1892 3144 c10 -10 20 -15 24 -12 3 4 -5 12 -18 18 -22 12 -22 12 -6
-6z"/>
<path d="M2191 3157 c2 -1 13 -9 24 -17 19 -14 19 -14 6 3 -7 9 -18 17 -24 17
-6 0 -8 -1 -6 -3z"/>
<path d="M76 3137 c3 -10 9 -15 12 -12 3 3 0 11 -7 18 -10 9 -11 8 -5 -6z"/>
<path d="M2398 3120 c-16 -17 -28 -34 -28 -39 0 -4 -9 -16 -20 -26 -15 -14
-17 -22 -9 -37 13 -24 5 -35 -14 -20 -8 7 -17 9 -20 5 -4 -3 1 -12 11 -19 23
-17 47 -2 61 37 13 39 14 42 1 34 -5 -3 -10 -2 -10 4 0 5 7 14 16 19 13 7 50
73 41 72 -1 0 -14 -14 -29 -30z"/>
<path d="M402 3124 c10 -10 20 -16 22 -13 3 3 -5 11 -17 18 -21 13 -21 12 -5
-5z"/>
<path d="M2350 3125 c7 -9 15 -13 17 -11 7 7 -7 26 -19 26 -6 0 -6 -6 2 -15z"/>
<path d="M210 3120 c0 -5 5 -10 11 -10 5 0 7 5 4 10 -3 6 -8 10 -11 10 -2 0
-4 -4 -4 -10z"/>
<path d="M1744 3119 c-3 -6 -2 -15 3 -20 5 -5 9 -1 9 11 0 23 -2 24 -12 9z"/>
<path d="M2305 3120 c3 -6 -1 -10 -10 -10 -8 0 -18 -7 -22 -15 -5 -14 -7 -14
-24 1 -10 9 -22 14 -28 13 -6 -2 6 -14 25 -27 20 -13 33 -19 30 -14 -3 6 1 13
10 16 8 3 12 2 9 -4 -3 -6 1 -10 11 -10 12 0 15 6 11 21 -5 20 -5 20 13 4 10
-9 20 -13 23 -8 3 5 -8 16 -24 26 -17 9 -27 12 -24 7z"/>
<path d="M110 3111 c0 -5 5 -13 10 -16 6 -3 10 -2 10 4 0 5 -4 13 -10 16 -5 3
-10 2 -10 -4z"/>
<path d="M1282 3100 c13 -20 28 -27 28 -12 0 10 -22 32 -32 32 -5 0 -3 -9 4
-20z"/>
<path d="M1850 3116 c0 -2 8 -10 18 -17 15 -13 16 -12 3 4 -13 16 -21 21 -21
13z"/>
<path d="M376 3102 c-2 -4 4 -8 14 -8 10 0 16 4 14 8 -3 4 -9 8 -14 8 -5 0
-11 -4 -14 -8z"/>
<path d="M697 3099 c7 -7 15 -10 18 -7 3 3 -2 9 -12 12 -14 6 -15 5 -6 -5z"/>
<path d="M1497 3097 c-3 -7 3 -13 14 -13 13 0 15 3 7 13 -6 7 -12 13 -13 13
-2 0 -5 -6 -8 -13z"/>
<path d="M151 3074 c0 -11 3 -14 6 -6 3 7 2 16 -1 19 -3 4 -6 -2 -5 -13z"/>
<path d="M1572 3064 c10 -10 20 -16 22 -13 3 3 -5 11 -17 18 -21 13 -21 12 -5
-5z"/>
<path d="M2170 3055 c13 -14 26 -25 28 -25 3 0 -5 11 -18 25 -13 14 -26 25
-28 25 -3 0 5 -11 18 -25z"/>
<path d="M1460 3049 c0 -6 5 -20 11 -31 8 -16 8 -19 -1 -13 -8 5 -11 3 -8 -6
3 -8 10 -15 16 -15 7 -1 13 -2 15 -4 1 -1 10 -3 19 -5 14 -3 15 0 5 16 -6 10
-15 19 -19 19 -5 0 -8 9 -8 19 0 10 -7 21 -15 25 -8 3 -15 1 -15 -5z"/>
<path d="M1680 3056 c0 -2 7 -7 16 -10 8 -3 12 -2 9 4 -6 10 -25 14 -25 6z"/>
<path d="M1132 3038 c5 -15 28 -23 28 -10 0 5 -7 13 -16 16 -10 4 -14 1 -12
-6z"/>
<path d="M1533 3024 c0 -17 2 -22 7 -13 5 6 6 18 3 26 -8 19 -10 16 -10 -13z"/>
<path d="M2040 3046 c0 -3 9 -10 20 -16 11 -6 20 -8 20 -6 0 3 -9 10 -20 16
-11 6 -20 8 -20 6z"/>
<path d="M2247 3035 c-4 -8 -1 -17 5 -21 7 -4 8 -3 4 4 -4 7 -1 12 9 12 11 0
14 -6 9 -25 -8 -33 9 -32 24 0 14 31 16 57 2 35 -7 -12 -12 -12 -22 -2 -16 16
-25 15 -31 -3z"/>
<path d="M110 3030 c0 -13 56 -58 80 -65 14 -4 30 -12 36 -17 15 -11 96 20 88
34 -4 6 -9 5 -14 -2 -6 -10 -16 -7 -41 10 l-34 24 24 -27 c28 -30 22 -35 -14
-11 -13 9 -29 13 -35 9 -15 -9 -63 23 -57 39 3 6 -3 12 -14 12 -11 0 -19 -3
-19 -6z m135 -70 c3 -6 -1 -7 -9 -4 -18 7 -21 14 -7 14 6 0 13 -4 16 -10z"/>
<path d="M180 3036 c0 -2 7 -9 15 -16 13 -11 14 -10 9 4 -5 14 -24 23 -24 12z"/>
<path d="M270 3020 c-9 -6 -10 -10 -3 -10 6 0 15 5 18 10 8 12 4 12 -15 0z"/>
<path d="M1796 3015 c16 -13 17 -16 4 -25 -13 -9 -13 -10 0 -11 8 0 27 -2 43
-3 15 -1 27 -1 27 0 0 1 -17 13 -38 28 -40 27 -70 37 -36 11z"/>
<path d="M50 3006 c0 -2 7 -6 15 -10 8 -3 15 -1 15 4 0 6 -7 10 -15 10 -8 0
-15 -2 -15 -4z"/>
<path d="M1680 2990 l-35 -7 43 -2 c23 0 42 4 42 9 0 6 -3 9 -7 9 -5 -1 -24
-5 -43 -9z"/>
<path d="M0 2966 c0 -18 4 -25 12 -20 7 5 9 2 5 -9 -4 -11 0 -15 12 -14 24 2
22 22 -6 49 l-23 21 0 -27z"/>
<path d="M1740 2986 c0 -2 9 -6 20 -9 11 -3 18 -1 14 4 -5 9 -34 13 -34 5z"/>
<path d="M437 2969 c7 -7 15 -10 18 -7 3 3 -2 9 -12 12 -14 6 -15 5 -6 -5z"/>
<path d="M1820 2951 c-8 -6 -17 -8 -20 -6 -3 2 -6 -5 -7 -15 -2 -18 15 -35 63
-67 16 -11 15 -11 -8 -3 -23 8 -28 7 -28 -6 0 -9 5 -12 12 -8 7 5 9 2 5 -8 -4
-13 1 -15 31 -11 46 5 104 12 117 12 17 2 -9 19 -34 23 -14 1 -27 10 -29 18
-5 13 -3 13 14 0 12 -9 10 -4 -5 13 -27 30 -32 33 -28 15 1 -7 -4 -12 -10 -10
-7 1 -13 -4 -13 -10 0 -7 -5 -5 -11 5 -6 9 -16 14 -22 11 -7 -4 -9 -4 -5 1 4
4 2 17 -4 28 -9 17 -8 19 6 14 10 -4 15 -3 11 3 -8 12 -16 12 -35 1z m95 -91
c3 -5 2 -10 -4 -10 -5 0 -13 5 -16 10 -3 6 -2 10 4 10 5 0 13 -4 16 -10z"/>
<path d="M125 2940 c3 -5 14 -10 23 -10 15 0 15 2 2 10 -20 13 -33 13 -25 0z"/>
<path d="M1981 2938 c2 -2 20 -16 39 -33 l35 -30 -29 33 c-17 17 -34 32 -40
32 -5 0 -7 -1 -5 -2z"/>
<path d="M266 2923 c-4 -5 -12 -8 -18 -8 -6 0 -12 -8 -14 -17 -2 -20 30 -26
41 -8 3 6 16 10 28 10 22 1 22 1 3 15 -22 17 -29 18 -40 8z"/>
<path d="M483 2899 c6 -19 13 -36 14 -38 1 -1 15 4 32 12 17 9 34 11 40 6 8
-6 8 -5 1 3 -14 17 -53 22 -44 6 4 -7 -7 0 -24 16 l-31 29 12 -34z"/>
<path d="M1943 2908 c11 -10 23 -15 28 -12 5 3 25 -8 45 -25 19 -17 38 -31 42
-31 4 0 -11 16 -32 35 -22 19 -49 35 -61 35 -11 0 -25 3 -31 8 -5 4 -1 -1 9
-10z"/>
<path d="M2050 2926 c0 -2 7 -7 16 -10 8 -3 12 -2 9 4 -6 10 -25 14 -25 6z"/>
<path d="M2111 2921 c-8 -5 -9 -11 -3 -15 5 -3 12 1 16 9 6 17 6 18 -13 6z"/>
<path d="M56 2904 c-5 -13 -4 -14 7 -6 10 9 17 8 27 -1 12 -10 12 -9 1 6 -17
21 -27 22 -35 1z"/>
<path d="M581 2903 c7 -12 15 -20 18 -17 3 2 -3 12 -13 22 -17 16 -18 16 -5
-5z"/>
<path d="M0 2890 c0 -12 4 -18 10 -15 5 3 10 -1 10 -9 0 -10 6 -13 15 -10 21
8 18 16 -10 37 -24 18 -25 17 -25 -3z"/>
<path d="M362 2885 c20 -14 40 -25 44 -25 5 0 -7 11 -26 25 -19 14 -39 25 -44
25 -6 0 6 -11 26 -25z"/>
<path d="M2056 2897 c16 -29 49 -57 65 -57 28 0 13 23 -31 47 -22 12 -37 16
-34 10z"/>
<path d="M160 2889 c0 -5 5 -7 10 -4 6 3 10 8 10 11 0 2 -4 4 -10 4 -5 0 -10
-5 -10 -11z"/>
<path d="M1788 2888 c-7 -19 3 -58 13 -52 12 7 12 51 0 58 -5 4 -11 1 -13 -6z"/>
<path d="M1025 2874 c19 -14 18 -15 -17 -12 -21 1 -41 -1 -45 -5 -4 -4 21 -7
54 -5 66 2 72 10 21 27 -31 10 -32 10 -13 -5z"/>
<path d="M172 2872 c-18 -12 0 -57 29 -72 32 -18 51 5 21 26 -12 8 -19 20 -16
26 5 8 1 9 -11 4 -15 -5 -16 -4 -5 9 13 16 3 20 -18 7z"/>
<path d="M270 2870 c-13 -9 -11 -13 10 -29 30 -24 40 -18 16 8 -17 19 -17 19
3 14 11 -3 26 -11 32 -19 13 -15 44 -20 34 -5 -5 10 -63 41 -74 41 -3 0 -13
-5 -21 -10z"/>
<path d="M865 2870 c3 -5 14 -10 23 -10 15 0 15 2 2 10 -20 13 -33 13 -25 0z"/>
<path d="M1118 2853 c6 -2 18 -2 25 0 6 3 1 5 -13 5 -14 0 -19 -2 -12 -5z"/>
<path d="M1756 2831 c-3 -5 1 -11 9 -15 8 -3 15 -1 15 4 0 13 -18 22 -24 11z"/>
<path d="M2094 2827 c1 -6 5 -18 9 -24 5 -8 3 -13 -4 -13 -10 0 -10 -3 -2 -11
16 -16 34 -2 26 19 -6 15 -5 16 13 2 18 -14 18 -14 5 3 -20 25 -50 40 -47 24z"/>
<path d="M110 2820 c0 -5 5 -10 11 -10 5 0 7 5 4 10 -3 6 -8 10 -11 10 -2 0
-4 -4 -4 -10z"/>
<path d="M294 2801 c-18 -11 -35 -24 -39 -30 -5 -9 59 30 74 45 10 9 -6 3 -35
-15z"/>
<path d="M64 2792 c-19 -13 -25 -42 -8 -42 11 0 14 5 10 16 -4 11 -2 15 7 11
8 -3 14 1 14 9 0 16 -7 17 -23 6z"/>
<path d="M330 2786 c0 -2 7 -6 15 -10 8 -3 15 -1 15 4 0 6 -7 10 -15 10 -8 0
-15 -2 -15 -4z"/>
<path d="M1730 2780 c-8 -5 -10 -10 -5 -10 6 0 17 5 25 10 8 5 11 10 5 10 -5
0 -17 -5 -25 -10z"/>
<path d="M1875 2780 c3 -5 8 -10 11 -10 2 0 4 5 4 10 0 6 -5 10 -11 10 -5 0
-7 -4 -4 -10z"/>
<path d="M202 2765 c3 -3 2 -22 -2 -41 l-8 -35 33 7 c27 5 35 2 44 -14 13 -25
73 -51 79 -34 2 7 11 12 20 13 13 0 13 2 -3 8 -11 5 -29 8 -40 7 -11 -1 -28 7
-37 17 -10 9 -31 17 -48 17 -27 0 -29 2 -20 24 7 19 5 26 -8 31 -9 3 -14 3
-10 0z"/>
<path d="M1007 2756 c-3 -8 1 -20 9 -27 12 -10 14 -8 11 9 -4 28 -13 36 -20
18z"/>
<path d="M317 2746 c-6 -15 1 -26 15 -26 5 0 6 5 2 11 -3 6 0 15 7 20 11 7 11
9 -2 9 -9 0 -19 -6 -22 -14z"/>
<path d="M1940 2739 c0 -5 5 -7 10 -4 6 3 10 8 10 11 0 2 -4 4 -10 4 -5 0 -10
-5 -10 -11z"/>
<path d="M2060 2742 c0 -5 7 -13 16 -16 10 -4 14 -1 12 6 -5 15 -28 23 -28 10z"/>
<path d="M120 2731 c0 -5 5 -13 10 -16 6 -3 10 -2 10 4 0 5 -4 13 -10 16 -5 3
-10 2 -10 -4z"/>
<path d="M400 2736 c0 -2 9 -6 20 -9 11 -3 18 -1 14 4 -5 9 -34 13 -34 5z"/>
<path d="M0 2709 c0 -12 10 -30 22 -40 26 -24 26 -24 26 6 0 14 -4 25 -9 25
-4 0 -15 7 -23 16 -15 14 -16 13 -16 -7z"/>
<path d="M1860 2721 c0 -4 24 -11 53 -15 28 -3 63 -8 77 -11 14 -3 10 1 -10 8
-46 18 -120 30 -120 18z"/>
<path d="M1738 2703 c7 -3 16 -2 19 1 4 3 -2 6 -13 5 -11 0 -14 -3 -6 -6z"/>
<path d="M1780 2700 c-8 -5 -10 -10 -5 -10 6 0 17 5 25 10 8 5 11 10 5 10 -5
0 -17 -5 -25 -10z"/>
<path d="M140 2669 c0 -11 4 -18 10 -14 5 3 7 12 3 20 -7 21 -13 19 -13 -6z"/>
<path d="M187 2653 c-8 -12 -4 -45 12 -100 5 -18 8 -33 7 -33 -1 0 -20 9 -42
20 -26 13 -33 19 -20 20 15 0 17 3 8 12 -9 9 -9 15 1 27 6 9 -12 -4 -41 -28
-34 -28 -50 -37 -46 -24 5 15 4 15 -5 3 -6 -8 -11 -27 -11 -42 0 -22 8 -32 38
-47 21 -11 44 -27 52 -36 12 -15 15 -14 26 7 20 35 17 41 -18 35 -18 -2 -41 0
-50 5 -19 9 -25 38 -7 38 5 0 7 5 4 10 -10 16 11 11 26 -6 10 -13 10 -17 -2
-25 -11 -7 -9 -9 8 -9 12 0 29 3 38 6 14 6 14 8 -2 28 -16 19 -16 19 8 -1 32
-29 50 -15 42 33 -5 28 -3 34 13 34 14 0 15 -3 6 -12 -7 -7 -12 -17 -12 -22 1
-15 30 25 30 41 0 7 -6 10 -12 8 -21 -8 -36 8 -40 40 -2 19 -6 25 -11 18z
m-51 -131 c-4 -3 -11 0 -16 8 -15 24 -11 33 6 15 9 -9 13 -19 10 -23z"/>
<path d="M86 2643 c6 -4 14 -15 17 -23 5 -11 6 -9 4 4 -1 11 -9 21 -17 23 -10
3 -11 2 -4 -4z"/>
<path d="M1050 2639 c0 -5 5 -7 10 -4 6 3 10 8 10 11 0 2 -4 4 -10 4 -5 0 -10
-5 -10 -11z"/>
<path d="M30 2629 c0 -6 -7 -9 -15 -5 -10 4 -15 -1 -15 -15 0 -13 4 -18 12
-13 8 5 9 2 5 -10 -5 -12 -3 -16 5 -13 7 2 13 12 13 23 0 10 4 25 8 32 5 7 4
12 -2 12 -6 0 -11 -5 -11 -11z"/>
<path d="M278 2623 c6 -2 18 -2 25 0 6 3 1 5 -13 5 -14 0 -19 -2 -12 -5z"/>
<path d="M438 2623 c6 -2 18 -2 25 0 6 3 1 5 -13 5 -14 0 -19 -2 -12 -5z"/>
<path d="M990 2626 c0 -2 7 -9 15 -16 9 -7 15 -8 15 -2 0 5 -7 12 -15 16 -8 3
-15 4 -15 2z"/>
<path d="M370 2616 c0 -2 9 -6 20 -9 11 -3 18 -1 14 4 -5 9 -34 13 -34 5z"/>
<path d="M1835 2610 c3 -5 13 -10 21 -10 8 0 12 5 9 10 -3 6 -13 10 -21 10 -8
0 -12 -4 -9 -10z"/>
<path d="M450 2566 c0 -2 8 -10 18 -17 15 -13 16 -12 3 4 -13 16 -21 21 -21
13z"/>
<path d="M1080 2541 c0 -29 17 -34 39 -12 21 21 16 38 -6 20 -9 -9 -13 -8 -13
0 0 6 -4 11 -10 11 -5 0 -10 -9 -10 -19z"/>
<path d="M1916 2552 c-3 -5 1 -9 9 -9 8 0 15 4 15 9 0 4 -4 8 -9 8 -6 0 -12
-4 -15 -8z"/>
<path d="M270 2541 c0 -5 7 -11 15 -15 8 -3 15 -1 15 3 0 5 -7 11 -15 15 -8 3
-15 1 -15 -3z"/>
<path d="M830 2520 c-9 -6 -10 -10 -3 -10 6 0 15 5 18 10 8 12 4 12 -15 0z"/>
<path d="M391 2486 c2 -2 15 -9 29 -15 24 -11 24 -11 6 3 -16 13 -49 24 -35
12z"/>
<path d="M215 2459 c-11 -17 1 -21 15 -4 8 9 8 15 2 15 -6 0 -14 -5 -17 -11z"/>
<path d="M64 2436 c5 -26 30 -54 69 -77 13 -8 19 -6 24 8 3 10 8 23 11 28 3 6
1 7 -3 2 -5 -4 -18 1 -29 12 -12 10 -34 26 -49 36 l-28 18 5 -27z m82 -54 c-6
-5 -65 40 -65 51 -1 4 15 -4 34 -19 20 -15 33 -29 31 -32z"/>
<path d="M885 2449 c-11 -17 1 -21 15 -4 8 9 8 15 2 15 -6 0 -14 -5 -17 -11z"/>
<path d="M42 2430 c0 -14 2 -19 5 -12 2 6 2 18 0 25 -3 6 -5 1 -5 -13z"/>
<path d="M311 2433 c-1 -12 4 -25 9 -28 12 -7 12 2 0 30 -8 19 -9 19 -9 -2z"/>
<path d="M364 2438 c-6 -10 22 -9 56 2 22 7 20 8 -13 7 -21 0 -40 -4 -43 -9z"/>
<path d="M920 2440 c-18 -12 -2 -12 25 0 13 6 15 9 5 9 -8 0 -22 -4 -30 -9z"/>
<path d="M785 2431 c-3 -5 -1 -12 5 -16 5 -3 10 1 10 9 0 18 -6 21 -15 7z"/>
<path d="M615 2415 c-16 -8 -23 -14 -14 -15 8 0 24 7 35 15 23 18 18 18 -21 0z"/>
<path d="M373 2395 c6 -15 5 -16 -8 -5 -12 10 -15 10 -15 -3 0 -8 -3 -22 -6
-31 -5 -14 -3 -14 30 -1 19 8 47 15 62 15 33 0 27 23 -7 25 -13 1 -33 6 -43
10 -16 7 -18 5 -13 -10z"/>
<path d="M196 2387 c3 -10 9 -15 12 -12 3 3 0 11 -7 18 -10 9 -11 8 -5 -6z"/>
<path d="M470 2382 c0 -8 8 -10 28 -6 60 15 67 22 20 21 -31 -1 -48 -6 -48
-15z"/>
<path d="M1795 2380 c11 -5 29 -9 40 -9 17 -1 17 1 5 9 -8 5 -26 9 -40 9 -23
0 -23 -1 -5 -9z"/>
<path d="M306 2342 c-3 -5 1 -9 9 -9 8 0 15 4 15 9 0 4 -4 8 -9 8 -6 0 -12 -4
-15 -8z"/>
<path d="M743 2313 c9 -2 23 -2 30 0 6 3 -1 5 -18 5 -16 0 -22 -2 -12 -5z"/>
<path d="M1725 2270 c-3 -5 -1 -10 4 -10 6 0 11 5 11 10 0 6 -2 10 -4 10 -3 0
-8 -4 -11 -10z"/>
<path d="M60 2016 c0 -8 71 -48 76 -43 3 2 -11 14 -31 26 -36 21 -45 24 -45
17z"/>
<path d="M750 2016 c0 -2 11 -6 25 -8 13 -3 22 -1 19 3 -5 9 -44 13 -44 5z"/>
<path d="M835 1996 c11 -8 29 -16 40 -16 27 0 7 16 -30 24 -29 7 -29 7 -10 -8z"/>
<path d="M152 1981 c18 -29 53 -42 80 -31 19 8 20 9 3 7 -23 -4 -75 19 -75 33
0 6 -5 10 -10 10 -6 0 -5 -8 2 -19z"/>
<path d="M260 1964 c0 -8 5 -12 10 -9 6 4 8 11 5 16 -9 14 -15 11 -15 -7z"/>
<path d="M249 1909 c-34 -36 -38 -49 -17 -49 5 0 7 4 4 9 -3 5 1 14 9 21 8 7
15 10 15 7 0 -4 10 4 23 16 21 20 26 39 9 36 -4 -1 -23 -19 -43 -40z"/>
<path d="M187 1919 c8 -8 16 -8 30 0 16 9 14 10 -11 11 -22 0 -27 -3 -19 -11z"/>
<path d="M737 1919 c7 -7 15 -10 18 -7 3 3 -2 9 -12 12 -14 6 -15 5 -6 -5z"/>
<path d="M145 1890 c3 -5 11 -10 16 -10 6 0 7 5 4 10 -3 6 -11 10 -16 10 -6 0
-7 -4 -4 -10z"/>
<path d="M470 1896 c0 -2 7 -7 16 -10 8 -3 12 -2 9 4 -6 10 -25 14 -25 6z"/>
<path d="M789 1736 c14 -14 27 -26 29 -26 10 0 -26 44 -39 48 -8 3 -3 -7 10
-22z"/>
<path d="M675 1740 c-3 -6 1 -7 9 -4 18 7 21 14 7 14 -6 0 -13 -4 -16 -10z"/>
<path d="M715 1680 c-9 -15 16 -43 27 -32 10 10 0 42 -12 42 -5 0 -12 -5 -15
-10z"/>
<path d="M250 1665 c14 -8 34 -14 45 -14 11 0 2 6 -20 14 -50 18 -57 18 -25 0z"/>
<path d="M540 1656 c0 -2 8 -10 18 -17 15 -13 16 -12 3 4 -13 16 -21 21 -21
13z"/>
<path d="M624 1622 c4 -7 28 -26 53 -43 25 -18 43 -27 39 -21 -4 7 -28 26 -53
43 -25 18 -43 27 -39 21z"/>
<path d="M627 1541 c3 -11 14 -22 25 -24 19 -5 19 -4 -3 19 -27 29 -29 29 -22
5z"/>
<path d="M695 1537 c11 -7 34 -26 52 -43 18 -18 45 -35 60 -38 27 -6 27 -6 6
6 -16 10 -19 17 -12 30 8 14 5 16 -16 12 -17 -3 -37 4 -59 21 -18 14 -37 25
-42 24 -5 0 0 -6 11 -12z"/>
<path d="M639 1467 c6 -6 22 -12 37 -13 25 -3 26 -2 8 10 -23 16 -60 18 -45 3z"/>
<path d="M146 1400 c21 -21 53 -42 69 -45 29 -6 29 -5 -17 37 -26 24 -58 44
-70 45 -19 2 -17 -3 18 -37z"/>
<path d="M730 1400 c-18 -29 -32 -40 -50 -40 -19 -1 -13 -6 24 -20 28 -11 52
-17 55 -15 2 3 0 5 -5 5 -27 1 -35 17 -20 44 25 48 48 58 91 40 20 -8 39 -13
42 -10 7 7 -66 36 -91 36 -14 0 -30 -13 -46 -40z"/>
<path d="M896 1425 c-11 -8 -15 -15 -9 -15 6 0 16 7 23 15 16 19 11 19 -14 0z"/>
<path d="M480 1418 c0 -16 19 -38 33 -38 5 0 3 7 -4 17 -8 9 -13 19 -11 22 2
3 -1 7 -7 9 -6 2 -11 -3 -11 -10z"/>
<path d="M580 1420 c0 -5 5 -10 11 -10 5 0 7 5 4 10 -3 6 -8 10 -11 10 -2 0
-4 -4 -4 -10z"/>
<path d="M630 1401 c0 -7 -5 -9 -12 -5 -7 5 -8 3 -3 -5 5 -9 10 -10 18 -2 6 6
8 14 4 18 -4 3 -7 1 -7 -6z"/>
<path d="M810 1350 c8 -6 24 -15 35 -21 16 -8 15 -6 -4 10 -13 12 -28 21 -35
21 -6 0 -4 -5 4 -10z"/>
<path d="M150 1346 c0 -8 64 -36 80 -36 19 0 2 17 -22 23 -13 2 -31 8 -40 12
-10 4 -18 4 -18 1z"/>
<path d="M3 1313 c0 -20 15 -43 29 -43 5 0 6 5 2 12 -5 8 -2 9 12 4 15 -6 14
-3 -5 18 -29 31 -38 32 -38 9z m27 -13 c0 -5 -2 -10 -4 -10 -3 0 -8 5 -11 10
-3 6 -1 10 4 10 6 0 11 -4 11 -10z"/>
<path d="M275 1313 c16 -3 33 -9 36 -15 4 -6 26 -11 50 -12 l43 -3 -39 18
c-22 10 -58 17 -80 17 -33 -1 -35 -2 -10 -5z"/>
<path d="M740 1300 c0 -5 5 -10 11 -10 5 0 7 5 4 10 -3 6 -8 10 -11 10 -2 0
-4 -4 -4 -10z"/>
<path d="M890 1281 c0 -18 25 -30 40 -19 12 8 12 9 -2 4 -12 -3 -18 0 -18 9 0
8 -4 15 -10 15 -5 0 -10 -4 -10 -9z"/>
<path d="M860 1245 c13 -14 26 -25 28 -25 3 0 -5 11 -18 25 -13 14 -26 25 -28
25 -3 0 5 -11 18 -25z"/>
<path d="M85 1240 c3 -5 11 -10 16 -10 6 0 7 5 4 10 -3 6 -11 10 -16 10 -6 0
-7 -4 -4 -10z"/>
<path d="M505 1216 c17 -13 32 -22 34 -20 5 5 -42 43 -54 44 -5 0 4 -11 20
-24z"/>
<path d="M705 1200 c3 -5 8 -10 11 -10 2 0 4 5 4 10 0 6 -5 10 -11 10 -5 0 -7
-4 -4 -10z"/>
<path d="M156 805 c-3 -9 0 -15 9 -15 16 0 20 16 6 24 -5 3 -11 -1 -15 -9z"/>
<path d="M0 800 c0 -5 5 -10 10 -10 6 0 10 -5 10 -11 0 -5 -6 -7 -12 -3 -7 4
-4 -2 6 -14 21 -25 36 -31 16 -7 -14 16 -10 18 14 9 9 -3 16 -10 16 -14 0 -14
-32 -21 -46 -9 -11 9 -14 9 -14 0 0 -7 23 -22 52 -35 46 -21 54 -21 80 -9 15
8 31 20 35 26 5 9 3 9 -8 1 -8 -6 -27 -14 -44 -17 -16 -4 -24 -4 -17 -1 6 3 9
11 5 16 -4 7 2 9 15 6 30 -8 38 9 10 18 -27 8 -49 35 -41 48 4 5 1 6 -6 2 -6
-4 -18 -2 -26 4 -12 10 -15 10 -15 -1 0 -10 -3 -10 -12 -1 -15 15 -28 16 -28
2z m85 -48 c-6 -7 -35 18 -35 31 0 5 9 2 20 -8 11 -10 18 -20 15 -23z"/>
<path d="M170 705 c0 -5 5 -17 10 -25 5 -8 10 -10 10 -5 0 6 -5 17 -10 25 -5
8 -10 11 -10 5z"/>
<path d="M230 685 c-16 -17 -19 -25 -9 -25 8 0 19 11 26 25 14 31 12 31 -17 0z"/>
<path d="M269 574 c-13 -14 -17 -23 -9 -19 13 5 46 45 37 45 -2 0 -14 -11 -28
-26z"/>
<path d="M31 557 c13 -12 68 -34 64 -26 -4 5 -1 9 5 9 6 0 8 5 5 10 -3 6 -22
10 -42 10 -20 0 -34 -2 -32 -3z"/>
<path d="M7 234 c-4 -4 -7 -14 -7 -23 0 -11 3 -12 11 -4 6 6 10 16 7 23 -2 6
-7 8 -11 4z"/>
<path d="M1138 153 c6 -2 18 -2 25 0 6 3 1 5 -13 5 -14 0 -19 -2 -12 -5z"/>
<path d="M983 37 c-42 -12 -80 -37 -55 -37 7 0 20 4 30 9 9 5 33 16 52 24 41
18 32 20 -27 4z"/>
<path d="M1148 43 c7 -3 16 -2 19 1 4 3 -2 6 -13 5 -11 0 -14 -3 -6 -6z"/>
<path d="M1198 33 c7 -3 16 -2 19 1 4 3 -2 6 -13 5 -11 0 -14 -3 -6 -6z"/>
<path d="M2536 25 c-20 -20 -20 -25 -2 -25 8 0 17 7 20 16 9 24 1 28 -18 9z"/>
<path d="M2743 28 c-32 -15 -29 -28 6 -28 24 0 41 14 41 36 0 7 -24 3 -47 -8z"/>
<path d="M3978 26 c-23 -17 -23 -26 2 -26 13 0 20 7 20 20 0 23 0 23 -22 6z"/>
<path d="M80 15 c-11 -13 -8 -15 19 -15 17 0 31 4 31 9 0 5 -10 7 -22 3 -14
-3 -19 -2 -14 6 10 17 1 15 -14 -3z"/>
<path d="M1198 3 c7 -3 16 -2 19 1 4 3 -2 6 -13 5 -11 0 -14 -3 -6 -6z"/>
</g>
</svg>
